<svg class="main-svg" xmlns="http://www.w3.org/2000/svg" xmlns:xlink="http://www.w3.org/1999/xlink" width="400" height="400" style="" viewBox="0 0 400 400"><rect x="0" y="0" width="400" height="400" style="fill: rgb(255, 255, 255); fill-opacity: 1;"/><defs id="defs-9a992f"><g class="clips"><clipPath id="clip9a992fxyplot" class="plotclip"><rect width="303" height="330"/></clipPath><clipPath class="axesclip" id="clip9a992fx"><rect x="30" y="0" width="303" height="400"/></clipPath><clipPath class="axesclip" id="clip9a992fy"><rect x="0" y="40" width="400" height="330"/></clipPath><clipPath class="axesclip" id="clip9a992fxy"><rect x="30" y="40" width="303" height="330"/></clipPath></g><g class="gradients"><linearGradient x1="0" x2="0" y1="1" y2="0" id="g9a992f-cb23453f19-f71e-4dc1-8abf-80afe5139182"><stop offset="0%" stop-color="rgb(68, 1, 84)" stop-opacity="1"/><stop offset="11.111111%" stop-color="rgb(72, 40, 120)" stop-opacity="1"/><stop offset="22.222222%" stop-color="rgb(62, 73, 137)" stop-opacity="1"/><stop offset="33.333333%" stop-color="rgb(49, 104, 142)" stop-opacity="1"/><stop offset="44.444444%" stop-color="rgb(38, 130, 142)" stop-opacity="1"/><stop offset="55.555556%" stop-color="rgb(31, 158, 137)" stop-opacity="1"/><stop offset="66.666667%" stop-color="rgb(53, 183, 121)" stop-opacity="1"/><stop offset="77.777778%" stop-color="rgb(110, 206, 88)" stop-opacity="1"/><stop offset="88.888889%" stop-color="rgb(181, 222, 43)" stop-opacity="1"/><stop offset="100%" stop-color="rgb(253, 231, 37)" stop-opacity="1"/></linearGradient></g><g class="patterns"/></defs><g class="bglayer"/><g class="layer-below"><g class="imagelayer"/><g class="shapelayer"/></g><g class="cartesianlayer"><g class="subplot xy"><g class="layer-subplot"><g class="shapelayer"/><g class="imagelayer"/></g><g class="minor-gridlayer"><g class="x"/><g class="y"/></g><g class="gridlayer"><g class="x"/><g class="y"/></g><g class="zerolinelayer"/><path class="xlines-below"/><path class="ylines-below"/><g class="overlines-below"/><g class="xaxislayer-below"/><g class="yaxislayer-below"/><g class="overaxes-below"/><g class="plot" transform="translate(30,40)" clip-path="url(#clip9a992fxyplot)"><g class="scatterlayer mlayer"><g class="trace scatter traceb10bb919-9137-4b17-8f3e-4223da108acc" style="stroke-miterlimit: 2; opacity: 1;"><g class="fills"/><g class="errorbars"/><g class="lines"><path class="js-line" d="M111.96,56.98L114.19,120.12" style="vector-effect: none; fill: none; stroke: rgb(136, 136, 136); stroke-opacity: 1; stroke-width: 1px; opacity: 1;"/><path class="js-line" d="M111.96,56.98L126.94,19.5" style="vector-effect: none; fill: none; stroke: rgb(136, 136, 136); stroke-opacity: 1; stroke-width: 1px; opacity: 1;"/><path class="js-line" d="M111.96,56.98L72.65,55.16" style="vector-effect: none; fill: none; stroke: rgb(136, 136, 136); stroke-opacity: 1; stroke-width: 1px; opacity: 1;"/><path class="js-line" d="M111.96,56.98L150.17,38.83" style="vector-effect: none; fill: none; stroke: rgb(136, 136, 136); stroke-opacity: 1; stroke-width: 1px; opacity: 1;"/><path class="js-line" d="M111.96,56.98L91.62,26.57" style="vector-effect: none; fill: none; stroke: rgb(136, 136, 136); stroke-opacity: 1; stroke-width: 1px; opacity: 1;"/><path class="js-line" d="M114.19,120.12L107.55,164.06" style="vector-effect: none; fill: none; stroke: rgb(136, 136, 136); stroke-opacity: 1; stroke-width: 1px; opacity: 1;"/><path class="js-line" d="M114.19,120.12L136.07,155.05" style="vector-effect: none; fill: none; stroke: rgb(136, 136, 136); stroke-opacity: 1; stroke-width: 1px; opacity: 1;"/><path class="js-line" d="M107.55,164.06L135.27,191.36" style="vector-effect: none; fill: none; stroke: rgb(136, 136, 136); stroke-opacity: 1; stroke-width: 1px; opacity: 1;"/><path class="js-line" d="M135.27,191.36L136.07,155.05" style="vector-effect: none; fill: none; stroke: rgb(136, 136, 136); stroke-opacity: 1; stroke-width: 1px; opacity: 1;"/><path class="js-line" d="M135.27,191.36L156.74,222.12" style="vector-effect: none; fill: none; stroke: rgb(136, 136, 136); stroke-opacity: 1; stroke-width: 1px; opacity: 1;"/><path class="js-line" d="M68.64,264.47L42.17,225.16" style="vector-effect: none; fill: none; stroke: rgb(136, 136, 136); stroke-opacity: 1; stroke-width: 1px; opacity: 1;"/><path class="js-line" d="M68.64,264.47L106.46,289.94" style="vector-effect: none; fill: none; stroke: rgb(136, 136, 136); stroke-opacity: 1; stroke-width: 1px; opacity: 1;"/><path class="js-line" d="M68.64,264.47L37.03,266.59" style="vector-effect: none; fill: none; stroke: rgb(136, 136, 136); stroke-opacity: 1; stroke-width: 1px; opacity: 1;"/><path class="js-line" d="M68.64,264.47L91.21,244.84" style="vector-effect: none; fill: none; stroke: rgb(136, 136, 136); stroke-opacity: 1; stroke-width: 1px; opacity: 1;"/><path class="js-line" d="M68.64,264.47L68.98,299.45" style="vector-effect: none; fill: none; stroke: rgb(136, 136, 136); stroke-opacity: 1; stroke-width: 1px; opacity: 1;"/><path class="js-line" d="M42.17,225.16L22.79,191.2" style="vector-effect: none; fill: none; stroke: rgb(136, 136, 136); stroke-opacity: 1; stroke-width: 1px; opacity: 1;"/><path class="js-line" d="M22.79,191.2L18.15,154.61" style="vector-effect: none; fill: none; stroke: rgb(136, 136, 136); stroke-opacity: 1; stroke-width: 1px; opacity: 1;"/><path class="js-line" d="M18.15,154.61L34.04,122.33" style="vector-effect: none; fill: none; stroke: rgb(136, 136, 136); stroke-opacity: 1; stroke-width: 1px; opacity: 1;"/><path class="js-line" d="M34.04,122.33L69.06,105.78" style="vector-effect: none; fill: none; stroke: rgb(136, 136, 136); stroke-opacity: 1; stroke-width: 1px; opacity: 1;"/><path class="js-line" d="M69.06,105.78L117.36,93.42" style="vector-effect: none; fill: none; stroke: rgb(136, 136, 136); stroke-opacity: 1; stroke-width: 1px; opacity: 1;"/><path class="js-line" d="M117.36,93.42L164.51,93.2" style="vector-effect: none; fill: none; stroke: rgb(136, 136, 136); stroke-opacity: 1; stroke-width: 1px; opacity: 1;"/><path class="js-line" d="M164.51,93.2L203.54,108.83" style="vector-effect: none; fill: none; stroke: rgb(136, 136, 136); stroke-opacity: 1; stroke-width: 1px; opacity: 1;"/><path class="js-line" d="M203.54,108.83L247.29,131.43" style="vector-effect: none; fill: none; stroke: rgb(136, 136, 136); stroke-opacity: 1; stroke-width: 1px; opacity: 1;"/><path class="js-line" d="M247.29,131.43L248.7,188.8" style="vector-effect: none; fill: none; stroke: rgb(136, 136, 136); stroke-opacity: 1; stroke-width: 1px; opacity: 1;"/><path class="js-line" d="M247.29,131.43L270.14,166.32" style="vector-effect: none; fill: none; stroke: rgb(136, 136, 136); stroke-opacity: 1; stroke-width: 1px; opacity: 1;"/><path class="js-line" d="M247.29,131.43L284.85,141.4" style="vector-effect: none; fill: none; stroke: rgb(136, 136, 136); stroke-opacity: 1; stroke-width: 1px; opacity: 1;"/><path class="js-line" d="M247.29,131.43L231.3,89.17" style="vector-effect: none; fill: none; stroke: rgb(136, 136, 136); stroke-opacity: 1; stroke-width: 1px; opacity: 1;"/><path class="js-line" d="M247.29,131.43L256.49,85.07" style="vector-effect: none; fill: none; stroke: rgb(136, 136, 136); stroke-opacity: 1; stroke-width: 1px; opacity: 1;"/><path class="js-line" d="M247.29,131.43L222.01,157.77" style="vector-effect: none; fill: none; stroke: rgb(136, 136, 136); stroke-opacity: 1; stroke-width: 1px; opacity: 1;"/><path class="js-line" d="M247.29,131.43L276.37,108.58" style="vector-effect: none; fill: none; stroke: rgb(136, 136, 136); stroke-opacity: 1; stroke-width: 1px; opacity: 1;"/><path class="js-line" d="M106.46,289.94L138.2,306.63" style="vector-effect: none; fill: none; stroke: rgb(136, 136, 136); stroke-opacity: 1; stroke-width: 1px; opacity: 1;"/><path class="js-line" d="M138.2,306.63L169.69,310.5" style="vector-effect: none; fill: none; stroke: rgb(136, 136, 136); stroke-opacity: 1; stroke-width: 1px; opacity: 1;"/><path class="js-line" d="M169.69,310.5L199.52,302.89" style="vector-effect: none; fill: none; stroke: rgb(136, 136, 136); stroke-opacity: 1; stroke-width: 1px; opacity: 1;"/><path class="js-line" d="M199.52,302.89L226.25,287.35" style="vector-effect: none; fill: none; stroke: rgb(136, 136, 136); stroke-opacity: 1; stroke-width: 1px; opacity: 1;"/><path class="js-line" d="M226.25,287.35L247.08,263.17" style="vector-effect: none; fill: none; stroke: rgb(136, 136, 136); stroke-opacity: 1; stroke-width: 1px; opacity: 1;"/><path class="js-line" d="M247.08,263.17L253.61,229.56" style="vector-effect: none; fill: none; stroke: rgb(136, 136, 136); stroke-opacity: 1; stroke-width: 1px; opacity: 1;"/><path class="js-line" d="M253.61,229.56L248.7,188.8" style="vector-effect: none; fill: none; stroke: rgb(136, 136, 136); stroke-opacity: 1; stroke-width: 1px; opacity: 1;"/></g><g class="points"/><g class="text"/></g><g class="trace scatter trace23453f19-f71e-4dc1-8abf-80afe5139182" style="stroke-miterlimit: 2; opacity: 1;"><g class="fills"/><g class="errorbars"/><g class="lines"/><g class="points"><path class="point" transform="translate(111.96,56.98)" d="M4.8,0A4.8,4.8 0 1,1 0,-4.8A4.8,4.8 0 0,1 4.8,0Z" style="opacity: 1; stroke-width: 1px; fill: rgb(68, 1, 84); fill-opacity: 1; stroke: rgb(136, 136, 136); stroke-opacity: 1;"/><path class="point" transform="translate(114.19,120.12)" d="M5,0A5,5 0 1,1 0,-5A5,5 0 0,1 5,0Z" style="opacity: 1; stroke-width: 1px; fill: rgb(68, 1, 84); fill-opacity: 1; stroke: rgb(136, 136, 136); stroke-opacity: 1;"/><path class="point" transform="translate(107.55,164.06)" d="M4.12,0A4.12,4.12 0 1,1 0,-4.12A4.12,4.12 0 0,1 4.12,0Z" style="opacity: 1; stroke-width: 1px; fill: rgb(68, 1, 84); fill-opacity: 1; stroke: rgb(136, 136, 136); stroke-opacity: 1;"/><path class="point" transform="translate(135.27,191.36)" d="M4.72,0A4.72,4.72 0 1,1 0,-4.72A4.72,4.72 0 0,1 4.72,0Z" style="opacity: 1; stroke-width: 1px; fill: rgb(68, 1, 84); fill-opacity: 1; stroke: rgb(136, 136, 136); stroke-opacity: 1;"/><path class="point" transform="translate(136.07,155.05)" d="M4,0A4,4 0 1,1 0,-4A4,4 0 0,1 4,0Z" style="opacity: 1; stroke-width: 1px; fill: rgb(68, 1, 84); fill-opacity: 1; stroke: rgb(136, 136, 136); stroke-opacity: 1;"/><path class="point" transform="translate(156.74,222.12)" d="M4,0A4,4 0 1,1 0,-4A4,4 0 0,1 4,0Z" style="opacity: 1; stroke-width: 1px; fill: rgb(68, 1, 84); fill-opacity: 1; stroke: rgb(136, 136, 136); stroke-opacity: 1;"/><path class="point" transform="translate(126.94,19.5)" d="M4,0A4,4 0 1,1 0,-4A4,4 0 0,1 4,0Z" style="opacity: 1; stroke-width: 1px; fill: rgb(68, 1, 84); fill-opacity: 1; stroke: rgb(136, 136, 136); stroke-opacity: 1;"/><path class="point" transform="translate(72.65,55.16)" d="M4,0A4,4 0 1,1 0,-4A4,4 0 0,1 4,0Z" style="opacity: 1; stroke-width: 1px; fill: rgb(68, 1, 84); fill-opacity: 1; stroke: rgb(136, 136, 136); stroke-opacity: 1;"/><path class="point" transform="translate(150.17,38.83)" d="M4,0A4,4 0 1,1 0,-4A4,4 0 0,1 4,0Z" style="opacity: 1; stroke-width: 1px; fill: rgb(68, 1, 84); fill-opacity: 1; stroke: rgb(136, 136, 136); stroke-opacity: 1;"/><path class="point" transform="translate(91.62,26.57)" d="M4,0A4,4 0 1,1 0,-4A4,4 0 0,1 4,0Z" style="opacity: 1; stroke-width: 1px; fill: rgb(68, 1, 84); fill-opacity: 1; stroke: rgb(136, 136, 136); stroke-opacity: 1;"/><path class="point" transform="translate(68.64,264.47)" d="M4.34,0A4.34,4.34 0 1,1 0,-4.34A4.34,4.34 0 0,1 4.34,0Z" style="opacity: 1; stroke-width: 1px; fill: rgb(253, 231, 37); fill-opacity: 1; stroke: rgb(136, 136, 136); stroke-opacity: 1;"/><path class="point" transform="translate(42.17,225.16)" d="M4,0A4,4 0 1,1 0,-4A4,4 0 0,1 4,0Z" style="opacity: 1; stroke-width: 1px; fill: rgb(253, 231, 37); fill-opacity: 1; stroke: rgb(136, 136, 136); stroke-opacity: 1;"/><path class="point" transform="translate(22.79,191.2)" d="M4,0A4,4 0 1,1 0,-4A4,4 0 0,1 4,0Z" style="opacity: 1; stroke-width: 1px; fill: rgb(253, 231, 37); fill-opacity: 1; stroke: rgb(136, 136, 136); stroke-opacity: 1;"/><path class="point" transform="translate(18.15,154.61)" d="M4,0A4,4 0 1,1 0,-4A4,4 0 0,1 4,0Z" style="opacity: 1; stroke-width: 1px; fill: rgb(253, 231, 37); fill-opacity: 1; stroke: rgb(136, 136, 136); stroke-opacity: 1;"/><path class="point" transform="translate(34.04,122.33)" d="M4,0A4,4 0 1,1 0,-4A4,4 0 0,1 4,0Z" style="opacity: 1; stroke-width: 1px; fill: rgb(253, 231, 37); fill-opacity: 1; stroke: rgb(136, 136, 136); stroke-opacity: 1;"/><path class="point" transform="translate(69.06,105.78)" d="M4,0A4,4 0 1,1 0,-4A4,4 0 0,1 4,0Z" style="opacity: 1; stroke-width: 1px; fill: rgb(253, 231, 37); fill-opacity: 1; stroke: rgb(136, 136, 136); stroke-opacity: 1;"/><path class="point" transform="translate(117.36,93.42)" d="M4,0A4,4 0 1,1 0,-4A4,4 0 0,1 4,0Z" style="opacity: 1; stroke-width: 1px; fill: rgb(253, 231, 37); fill-opacity: 1; stroke: rgb(136, 136, 136); stroke-opacity: 1;"/><path class="point" transform="translate(164.51,93.2)" d="M4,0A4,4 0 1,1 0,-4A4,4 0 0,1 4,0Z" style="opacity: 1; stroke-width: 1px; fill: rgb(253, 231, 37); fill-opacity: 1; stroke: rgb(136, 136, 136); stroke-opacity: 1;"/><path class="point" transform="translate(203.54,108.83)" d="M4,0A4,4 0 1,1 0,-4A4,4 0 0,1 4,0Z" style="opacity: 1; stroke-width: 1px; fill: rgb(253, 231, 37); fill-opacity: 1; stroke: rgb(136, 136, 136); stroke-opacity: 1;"/><path class="point" transform="translate(247.29,131.43)" d="M4.26,0A4.26,4.26 0 1,1 0,-4.26A4.26,4.26 0 0,1 4.26,0Z" style="opacity: 1; stroke-width: 1px; fill: rgb(253, 231, 37); fill-opacity: 1; stroke: rgb(136, 136, 136); stroke-opacity: 1;"/><path class="point" transform="translate(106.46,289.94)" d="M4,0A4,4 0 1,1 0,-4A4,4 0 0,1 4,0Z" style="opacity: 1; stroke-width: 1px; fill: rgb(253, 231, 37); fill-opacity: 1; stroke: rgb(136, 136, 136); stroke-opacity: 1;"/><path class="point" transform="translate(138.2,306.63)" d="M4,0A4,4 0 1,1 0,-4A4,4 0 0,1 4,0Z" style="opacity: 1; stroke-width: 1px; fill: rgb(253, 231, 37); fill-opacity: 1; stroke: rgb(136, 136, 136); stroke-opacity: 1;"/><path class="point" transform="translate(169.69,310.5)" d="M4,0A4,4 0 1,1 0,-4A4,4 0 0,1 4,0Z" style="opacity: 1; stroke-width: 1px; fill: rgb(253, 231, 37); fill-opacity: 1; stroke: rgb(136, 136, 136); stroke-opacity: 1;"/><path class="point" transform="translate(199.52,302.89)" d="M4,0A4,4 0 1,1 0,-4A4,4 0 0,1 4,0Z" style="opacity: 1; stroke-width: 1px; fill: rgb(253, 231, 37); fill-opacity: 1; stroke: rgb(136, 136, 136); stroke-opacity: 1;"/><path class="point" transform="translate(226.25,287.35)" d="M4,0A4,4 0 1,1 0,-4A4,4 0 0,1 4,0Z" style="opacity: 1; stroke-width: 1px; fill: rgb(253, 231, 37); fill-opacity: 1; stroke: rgb(136, 136, 136); stroke-opacity: 1;"/><path class="point" transform="translate(247.08,263.17)" d="M4,0A4,4 0 1,1 0,-4A4,4 0 0,1 4,0Z" style="opacity: 1; stroke-width: 1px; fill: rgb(253, 231, 37); fill-opacity: 1; stroke: rgb(136, 136, 136); stroke-opacity: 1;"/><path class="point" transform="translate(253.61,229.56)" d="M4,0A4,4 0 1,1 0,-4A4,4 0 0,1 4,0Z" style="opacity: 1; stroke-width: 1px; fill: rgb(253, 231, 37); fill-opacity: 1; stroke: rgb(136, 136, 136); stroke-opacity: 1;"/><path class="point" transform="translate(248.7,188.8)" d="M4,0A4,4 0 1,1 0,-4A4,4 0 0,1 4,0Z" style="opacity: 1; stroke-width: 1px; fill: rgb(253, 231, 37); fill-opacity: 1; stroke: rgb(136, 136, 136); stroke-opacity: 1;"/><path class="point" transform="translate(270.14,166.32)" d="M4,0A4,4 0 1,1 0,-4A4,4 0 0,1 4,0Z" style="opacity: 1; stroke-width: 1px; fill: rgb(253, 231, 37); fill-opacity: 1; stroke: rgb(136, 136, 136); stroke-opacity: 1;"/><path class="point" transform="translate(284.85,141.4)" d="M4,0A4,4 0 1,1 0,-4A4,4 0 0,1 4,0Z" style="opacity: 1; stroke-width: 1px; fill: rgb(253, 231, 37); fill-opacity: 1; stroke: rgb(136, 136, 136); stroke-opacity: 1;"/><path class="point" transform="translate(231.3,89.17)" d="M4,0A4,4 0 1,1 0,-4A4,4 0 0,1 4,0Z" style="opacity: 1; stroke-width: 1px; fill: rgb(253, 231, 37); fill-opacity: 1; stroke: rgb(136, 136, 136); stroke-opacity: 1;"/><path class="point" transform="translate(256.49,85.07)" d="M4,0A4,4 0 1,1 0,-4A4,4 0 0,1 4,0Z" style="opacity: 1; stroke-width: 1px; fill: rgb(253, 231, 37); fill-opacity: 1; stroke: rgb(136, 136, 136); stroke-opacity: 1;"/><path class="point" transform="translate(222.01,157.77)" d="M4,0A4,4 0 1,1 0,-4A4,4 0 0,1 4,0Z" style="opacity: 1; stroke-width: 1px; fill: rgb(253, 231, 37); fill-opacity: 1; stroke: rgb(136, 136, 136); stroke-opacity: 1;"/><path class="point" transform="translate(276.37,108.58)" d="M4,0A4,4 0 1,1 0,-4A4,4 0 0,1 4,0Z" style="opacity: 1; stroke-width: 1px; fill: rgb(253, 231, 37); fill-opacity: 1; stroke: rgb(136, 136, 136); stroke-opacity: 1;"/><path class="point" transform="translate(37.03,266.59)" d="M4,0A4,4 0 1,1 0,-4A4,4 0 0,1 4,0Z" style="opacity: 1; stroke-width: 1px; fill: rgb(253, 231, 37); fill-opacity: 1; stroke: rgb(136, 136, 136); stroke-opacity: 1;"/><path class="point" transform="translate(91.21,244.84)" d="M4,0A4,4 0 1,1 0,-4A4,4 0 0,1 4,0Z" style="opacity: 1; stroke-width: 1px; fill: rgb(253, 231, 37); fill-opacity: 1; stroke: rgb(136, 136, 136); stroke-opacity: 1;"/><path class="point" transform="translate(68.98,299.45)" d="M4,0A4,4 0 1,1 0,-4A4,4 0 0,1 4,0Z" style="opacity: 1; stroke-width: 1px; fill: rgb(253, 231, 37); fill-opacity: 1; stroke: rgb(136, 136, 136); stroke-opacity: 1;"/></g><g class="text"/></g></g></g><g class="overplot"/><path class="xlines-above crisp" d="M0,0" style="fill: none;"/><path class="ylines-above crisp" d="M0,0" style="fill: none;"/><g class="overlines-above"/><g class="xaxislayer-above"/><g class="yaxislayer-above"/><g class="overaxes-above"/></g></g><g class="polarlayer"/><g class="smithlayer"/><g class="ternarylayer"/><g class="geolayer"/><g class="funnelarealayer"/><g class="pielayer"/><g class="iciclelayer"/><g class="treemaplayer"/><g class="sunburstlayer"/><g class="glimages"/><defs id="topdefs-9a992f"><g class="clips"/></defs><g class="layer-above"><g class="imagelayer"/><g class="shapelayer"/></g><g class="infolayer"><g class="cb23453f19-f71e-4dc1-8abf-80afe5139182 colorbar" transform="translate(30,40)"><rect class="cbbg" x="308.5" y="0" width="56.015625" height="331" style="fill: rgb(0, 0, 0); fill-opacity: 0; stroke: rgb(68, 68, 68); stroke-opacity: 1; stroke-width: 0;"/><g class="cbfills" transform="translate(0,10)"><rect class="cbfill gradient_filled" style="fill: url('#g9a992f-cb23453f19-f71e-4dc1-8abf-80afe5139182');" x="319" y="0" width="15" height="310"/></g><g class="cblines" transform="translate(0,10)"/><g class="cbaxis crisp" transform="translate(0,-40)"><g class="ycb23453f19-f71e-4dc1-8abf-80afe5139182tick"><text text-anchor="start" x="337.4" y="4.199999999999999" transform="translate(0,360)" style="font-family: 'Open Sans', verdana, arial, sans-serif; font-size: 12px; fill: rgb(36, 36, 36); fill-opacity: 1; white-space: pre; opacity: 1;">1</text></g><g class="ycb23453f19-f71e-4dc1-8abf-80afe5139182tick"><text text-anchor="start" x="337.4" y="4.199999999999999" style="font-family: 'Open Sans', verdana, arial, sans-serif; font-size: 12px; fill: rgb(36, 36, 36); fill-opacity: 1; white-space: pre; opacity: 1;" transform="translate(0,298)">1.2</text></g><g class="ycb23453f19-f71e-4dc1-8abf-80afe5139182tick"><text text-anchor="start" x="337.4" y="4.199999999999999" style="font-family: 'Open Sans', verdana, arial, sans-serif; font-size: 12px; fill: rgb(36, 36, 36); fill-opacity: 1; white-space: pre; opacity: 1;" transform="translate(0,236)">1.4</text></g><g class="ycb23453f19-f71e-4dc1-8abf-80afe5139182tick"><text text-anchor="start" x="337.4" y="4.199999999999999" style="font-family: 'Open Sans', verdana, arial, sans-serif; font-size: 12px; fill: rgb(36, 36, 36); fill-opacity: 1; white-space: pre; opacity: 1;" transform="translate(0,174)">1.6</text></g><g class="ycb23453f19-f71e-4dc1-8abf-80afe5139182tick"><text text-anchor="start" x="337.4" y="4.199999999999999" style="font-family: 'Open Sans', verdana, arial, sans-serif; font-size: 12px; fill: rgb(36, 36, 36); fill-opacity: 1; white-space: pre; opacity: 1;" transform="translate(0,112)">1.8</text></g><g class="ycb23453f19-f71e-4dc1-8abf-80afe5139182tick"><text text-anchor="start" x="337.4" y="4.199999999999999" style="font-family: 'Open Sans', verdana, arial, sans-serif; font-size: 12px; fill: rgb(36, 36, 36); fill-opacity: 1; white-space: pre; opacity: 1;" transform="translate(0,49.99999999999999)">2</text></g></g><g class="cbtitleunshift" transform="translate(-30,-40)"><g class="cbtitle"/></g><rect class="cboutline" x="319" y="10" width="15" height="310" style="stroke: rgb(68, 68, 68); stroke-opacity: 1; fill: none; stroke-width: 1;"/></g><g class="g-gtitle"/><g class="g-xtitle"/><g class="g-ytitle"/></g></svg>