<svg class="main-svg" xmlns="http://www.w3.org/2000/svg" xmlns:xlink="http://www.w3.org/1999/xlink" width="400" height="400" style="" viewBox="0 0 400 400"><rect x="0" y="0" width="400" height="400" style="fill: rgb(255, 255, 255); fill-opacity: 1;"/><defs id="defs-ddb788"><g class="clips"><clipPath id="clipddb788xyplot" class="plotclip"><rect width="303" height="330"/></clipPath><clipPath class="axesclip" id="clipddb788x"><rect x="30" y="0" width="303" height="400"/></clipPath><clipPath class="axesclip" id="clipddb788y"><rect x="0" y="40" width="400" height="330"/></clipPath><clipPath class="axesclip" id="clipddb788xy"><rect x="30" y="40" width="303" height="330"/></clipPath></g><g class="gradients"><linearGradient x1="0" x2="0" y1="1" y2="0" id="gddb788-cb6062ad51-f356-4c74-a072-0fe6a2107007"><stop offset="0%" stop-color="rgb(68, 1, 84)" stop-opacity="1"/><stop offset="11.111111%" stop-color="rgb(72, 40, 120)" stop-opacity="1"/><stop offset="22.222222%" stop-color="rgb(62, 73, 137)" stop-opacity="1"/><stop offset="33.333333%" stop-color="rgb(49, 104, 142)" stop-opacity="1"/><stop offset="44.444444%" stop-color="rgb(38, 130, 142)" stop-opacity="1"/><stop offset="55.555556%" stop-color="rgb(31, 158, 137)" stop-opacity="1"/><stop offset="66.666667%" stop-color="rgb(53, 183, 121)" stop-opacity="1"/><stop offset="77.777778%" stop-color="rgb(110, 206, 88)" stop-opacity="1"/><stop offset="88.888889%" stop-color="rgb(181, 222, 43)" stop-opacity="1"/><stop offset="100%" stop-color="rgb(253, 231, 37)" stop-opacity="1"/></linearGradient></g><g class="patterns"/></defs><g class="bglayer"/><g class="layer-below"><g class="imagelayer"/><g class="shapelayer"/></g><g class="cartesianlayer"><g class="subplot xy"><g class="layer-subplot"><g class="shapelayer"/><g class="imagelayer"/></g><g class="minor-gridlayer"><g class="x"/><g class="y"/></g><g class="gridlayer"><g class="x"/><g class="y"/></g><g class="zerolinelayer"/><path class="xlines-below"/><path class="ylines-below"/><g class="overlines-below"/><g class="xaxislayer-below"/><g class="yaxislayer-below"/><g class="overaxes-below"/><g class="plot" transform="translate(30,40)" clip-path="url(#clipddb788xyplot)"><g class="scatterlayer mlayer"><g class="trace scatter trace3043f2c7-5596-46e1-b42e-cd5250328e35" style="stroke-miterlimit: 2; opacity: 1;"><g class="fills"/><g class="errorbars"/><g class="lines"><path class="js-line" d="M41.06,123.03L25.83,150.7" style="vector-effect: none; fill: none; stroke: rgb(136, 136, 136); stroke-opacity: 1; stroke-width: 1px; opacity: 1;"/><path class="js-line" d="M41.06,123.03L70.02,119.91" style="vector-effect: none; fill: none; stroke: rgb(136, 136, 136); stroke-opacity: 1; stroke-width: 1px; opacity: 1;"/><path class="js-line" d="M41.06,123.03L43.72,90.98" style="vector-effect: none; fill: none; stroke: rgb(136, 136, 136); stroke-opacity: 1; stroke-width: 1px; opacity: 1;"/><path class="js-line" d="M25.83,150.7L18.15,177.56" style="vector-effect: none; fill: none; stroke: rgb(136, 136, 136); stroke-opacity: 1; stroke-width: 1px; opacity: 1;"/><path class="js-line" d="M122.15,45.99L152.37,38.26" style="vector-effect: none; fill: none; stroke: rgb(136, 136, 136); stroke-opacity: 1; stroke-width: 1px; opacity: 1;"/><path class="js-line" d="M122.15,45.99L131.28,19.5" style="vector-effect: none; fill: none; stroke: rgb(136, 136, 136); stroke-opacity: 1; stroke-width: 1px; opacity: 1;"/><path class="js-line" d="M122.15,45.99L114.62,77.76" style="vector-effect: none; fill: none; stroke: rgb(136, 136, 136); stroke-opacity: 1; stroke-width: 1px; opacity: 1;"/><path class="js-line" d="M122.15,45.99L89.72,47.83" style="vector-effect: none; fill: none; stroke: rgb(136, 136, 136); stroke-opacity: 1; stroke-width: 1px; opacity: 1;"/><path class="js-line" d="M70.02,119.91L95.7,103.33" style="vector-effect: none; fill: none; stroke: rgb(136, 136, 136); stroke-opacity: 1; stroke-width: 1px; opacity: 1;"/><path class="js-line" d="M95.7,103.33L114.62,77.76" style="vector-effect: none; fill: none; stroke: rgb(136, 136, 136); stroke-opacity: 1; stroke-width: 1px; opacity: 1;"/><path class="js-line" d="M43.72,90.98L62.7,64.66" style="vector-effect: none; fill: none; stroke: rgb(136, 136, 136); stroke-opacity: 1; stroke-width: 1px; opacity: 1;"/><path class="js-line" d="M62.7,64.66L89.72,47.83" style="vector-effect: none; fill: none; stroke: rgb(136, 136, 136); stroke-opacity: 1; stroke-width: 1px; opacity: 1;"/><path class="js-line" d="M126.63,221.72L155.04,227.16" style="vector-effect: none; fill: none; stroke: rgb(136, 136, 136); stroke-opacity: 1; stroke-width: 1px; opacity: 1;"/><path class="js-line" d="M126.63,221.72L92.56,210.03" style="vector-effect: none; fill: none; stroke: rgb(136, 136, 136); stroke-opacity: 1; stroke-width: 1px; opacity: 1;"/><path class="js-line" d="M92.56,210.03L76.49,184.96" style="vector-effect: none; fill: none; stroke: rgb(136, 136, 136); stroke-opacity: 1; stroke-width: 1px; opacity: 1;"/><path class="js-line" d="M92.56,210.03L58.88,212.94" style="vector-effect: none; fill: none; stroke: rgb(136, 136, 136); stroke-opacity: 1; stroke-width: 1px; opacity: 1;"/><path class="js-line" d="M92.56,210.03L76.38,243.98" style="vector-effect: none; fill: none; stroke: rgb(136, 136, 136); stroke-opacity: 1; stroke-width: 1px; opacity: 1;"/><path class="js-line" d="M92.56,210.03L118.13,181.89" style="vector-effect: none; fill: none; stroke: rgb(136, 136, 136); stroke-opacity: 1; stroke-width: 1px; opacity: 1;"/><path class="js-line" d="M76.38,243.98L96.68,258.03" style="vector-effect: none; fill: none; stroke: rgb(136, 136, 136); stroke-opacity: 1; stroke-width: 1px; opacity: 1;"/><path class="js-line" d="M76.38,243.98L67.87,274.27" style="vector-effect: none; fill: none; stroke: rgb(136, 136, 136); stroke-opacity: 1; stroke-width: 1px; opacity: 1;"/><path class="js-line" d="M239.93,96.36L227.11,61.98" style="vector-effect: none; fill: none; stroke: rgb(136, 136, 136); stroke-opacity: 1; stroke-width: 1px; opacity: 1;"/><path class="js-line" d="M239.93,96.36L245.09,148.12" style="vector-effect: none; fill: none; stroke: rgb(136, 136, 136); stroke-opacity: 1; stroke-width: 1px; opacity: 1;"/><path class="js-line" d="M239.93,96.36L259.98,76.95" style="vector-effect: none; fill: none; stroke: rgb(136, 136, 136); stroke-opacity: 1; stroke-width: 1px; opacity: 1;"/><path class="js-line" d="M245.09,148.12L223.72,169.81" style="vector-effect: none; fill: none; stroke: rgb(136, 136, 136); stroke-opacity: 1; stroke-width: 1px; opacity: 1;"/><path class="js-line" d="M245.09,148.12L260.27,186.82" style="vector-effect: none; fill: none; stroke: rgb(136, 136, 136); stroke-opacity: 1; stroke-width: 1px; opacity: 1;"/><path class="js-line" d="M260.27,186.82L278.22,210.6" style="vector-effect: none; fill: none; stroke: rgb(136, 136, 136); stroke-opacity: 1; stroke-width: 1px; opacity: 1;"/><path class="js-line" d="M260.27,186.82L284.85,175.04" style="vector-effect: none; fill: none; stroke: rgb(136, 136, 136); stroke-opacity: 1; stroke-width: 1px; opacity: 1;"/><path class="js-line" d="M260.27,186.82L246.91,218.93" style="vector-effect: none; fill: none; stroke: rgb(136, 136, 136); stroke-opacity: 1; stroke-width: 1px; opacity: 1;"/><path class="js-line" d="M67.87,274.27L90.68,295.46" style="vector-effect: none; fill: none; stroke: rgb(136, 136, 136); stroke-opacity: 1; stroke-width: 1px; opacity: 1;"/><path class="js-line" d="M90.68,295.46L120.77,301.65" style="vector-effect: none; fill: none; stroke: rgb(136, 136, 136); stroke-opacity: 1; stroke-width: 1px; opacity: 1;"/><path class="js-line" d="M120.77,301.65L149.38,297.7" style="vector-effect: none; fill: none; stroke: rgb(136, 136, 136); stroke-opacity: 1; stroke-width: 1px; opacity: 1;"/><path class="js-line" d="M149.38,297.7L177.63,289.63" style="vector-effect: none; fill: none; stroke: rgb(136, 136, 136); stroke-opacity: 1; stroke-width: 1px; opacity: 1;"/><path class="js-line" d="M177.63,289.63L191.49,310.5" style="vector-effect: none; fill: none; stroke: rgb(136, 136, 136); stroke-opacity: 1; stroke-width: 1px; opacity: 1;"/><path class="js-line" d="M177.63,289.63L201.93,273.79" style="vector-effect: none; fill: none; stroke: rgb(136, 136, 136); stroke-opacity: 1; stroke-width: 1px; opacity: 1;"/><path class="js-line" d="M201.93,273.79L227.2,267.99" style="vector-effect: none; fill: none; stroke: rgb(136, 136, 136); stroke-opacity: 1; stroke-width: 1px; opacity: 1;"/><path class="js-line" d="M227.2,267.99L242.98,247.69" style="vector-effect: none; fill: none; stroke: rgb(136, 136, 136); stroke-opacity: 1; stroke-width: 1px; opacity: 1;"/><path class="js-line" d="M242.98,247.69L246.91,218.93" style="vector-effect: none; fill: none; stroke: rgb(136, 136, 136); stroke-opacity: 1; stroke-width: 1px; opacity: 1;"/><path class="js-line" d="M118.13,181.89L142.6,159.83" style="vector-effect: none; fill: none; stroke: rgb(136, 136, 136); stroke-opacity: 1; stroke-width: 1px; opacity: 1;"/><path class="js-line" d="M142.6,159.83L161.55,134.54" style="vector-effect: none; fill: none; stroke: rgb(136, 136, 136); stroke-opacity: 1; stroke-width: 1px; opacity: 1;"/><path class="js-line" d="M161.55,134.54L180.29,107.01" style="vector-effect: none; fill: none; stroke: rgb(136, 136, 136); stroke-opacity: 1; stroke-width: 1px; opacity: 1;"/><path class="js-line" d="M180.29,107.01L179.51,75.48" style="vector-effect: none; fill: none; stroke: rgb(136, 136, 136); stroke-opacity: 1; stroke-width: 1px; opacity: 1;"/><path class="js-line" d="M180.29,107.01L210.1,113.66" style="vector-effect: none; fill: none; stroke: rgb(136, 136, 136); stroke-opacity: 1; stroke-width: 1px; opacity: 1;"/><path class="js-line" d="M210.1,113.66L244.88,116.95" style="vector-effect: none; fill: none; stroke: rgb(136, 136, 136); stroke-opacity: 1; stroke-width: 1px; opacity: 1;"/><path class="js-line" d="M244.88,116.95L271.01,101.13" style="vector-effect: none; fill: none; stroke: rgb(136, 136, 136); stroke-opacity: 1; stroke-width: 1px; opacity: 1;"/><path class="js-line" d="M271.01,101.13L259.98,76.95" style="vector-effect: none; fill: none; stroke: rgb(136, 136, 136); stroke-opacity: 1; stroke-width: 1px; opacity: 1;"/></g><g class="points"/><g class="text"/></g><g class="trace scatter trace6062ad51-f356-4c74-a072-0fe6a2107007" style="stroke-miterlimit: 2; opacity: 1;"><g class="fills"/><g class="errorbars"/><g class="lines"/><g class="points"><path class="point" transform="translate(41.06,123.03)" d="M5,0A5,5 0 1,1 0,-5A5,5 0 0,1 5,0Z" style="opacity: 1; stroke-width: 1px; fill: rgb(68, 1, 84); fill-opacity: 1; stroke: rgb(136, 136, 136); stroke-opacity: 1;"/><path class="point" transform="translate(25.83,150.7)" d="M4,0A4,4 0 1,1 0,-4A4,4 0 0,1 4,0Z" style="opacity: 1; stroke-width: 1px; fill: rgb(68, 1, 84); fill-opacity: 1; stroke: rgb(136, 136, 136); stroke-opacity: 1;"/><path class="point" transform="translate(18.15,177.56)" d="M4,0A4,4 0 1,1 0,-4A4,4 0 0,1 4,0Z" style="opacity: 1; stroke-width: 1px; fill: rgb(68, 1, 84); fill-opacity: 1; stroke: rgb(136, 136, 136); stroke-opacity: 1;"/><path class="point" transform="translate(122.15,45.99)" d="M4,0A4,4 0 1,1 0,-4A4,4 0 0,1 4,0Z" style="opacity: 1; stroke-width: 1px; fill: rgb(68, 1, 84); fill-opacity: 1; stroke: rgb(136, 136, 136); stroke-opacity: 1;"/><path class="point" transform="translate(152.37,38.26)" d="M4,0A4,4 0 1,1 0,-4A4,4 0 0,1 4,0Z" style="opacity: 1; stroke-width: 1px; fill: rgb(68, 1, 84); fill-opacity: 1; stroke: rgb(136, 136, 136); stroke-opacity: 1;"/><path class="point" transform="translate(131.28,19.5)" d="M4,0A4,4 0 1,1 0,-4A4,4 0 0,1 4,0Z" style="opacity: 1; stroke-width: 1px; fill: rgb(68, 1, 84); fill-opacity: 1; stroke: rgb(136, 136, 136); stroke-opacity: 1;"/><path class="point" transform="translate(70.02,119.91)" d="M4,0A4,4 0 1,1 0,-4A4,4 0 0,1 4,0Z" style="opacity: 1; stroke-width: 1px; fill: rgb(68, 1, 84); fill-opacity: 1; stroke: rgb(136, 136, 136); stroke-opacity: 1;"/><path class="point" transform="translate(95.7,103.33)" d="M4,0A4,4 0 1,1 0,-4A4,4 0 0,1 4,0Z" style="opacity: 1; stroke-width: 1px; fill: rgb(68, 1, 84); fill-opacity: 1; stroke: rgb(136, 136, 136); stroke-opacity: 1;"/><path class="point" transform="translate(114.62,77.76)" d="M4,0A4,4 0 1,1 0,-4A4,4 0 0,1 4,0Z" style="opacity: 1; stroke-width: 1px; fill: rgb(68, 1, 84); fill-opacity: 1; stroke: rgb(136, 136, 136); stroke-opacity: 1;"/><path class="point" transform="translate(43.72,90.98)" d="M4,0A4,4 0 1,1 0,-4A4,4 0 0,1 4,0Z" style="opacity: 1; stroke-width: 1px; fill: rgb(68, 1, 84); fill-opacity: 1; stroke: rgb(136, 136, 136); stroke-opacity: 1;"/><path class="point" transform="translate(62.7,64.66)" d="M4,0A4,4 0 1,1 0,-4A4,4 0 0,1 4,0Z" style="opacity: 1; stroke-width: 1px; fill: rgb(68, 1, 84); fill-opacity: 1; stroke: rgb(136, 136, 136); stroke-opacity: 1;"/><path class="point" transform="translate(89.72,47.83)" d="M4,0A4,4 0 1,1 0,-4A4,4 0 0,1 4,0Z" style="opacity: 1; stroke-width: 1px; fill: rgb(68, 1, 84); fill-opacity: 1; stroke: rgb(136, 136, 136); stroke-opacity: 1;"/><path class="point" transform="translate(126.63,221.72)" d="M4,0A4,4 0 1,1 0,-4A4,4 0 0,1 4,0Z" style="opacity: 1; stroke-width: 1px; fill: rgb(253, 231, 37); fill-opacity: 1; stroke: rgb(136, 136, 136); stroke-opacity: 1;"/><path class="point" transform="translate(155.04,227.16)" d="M4,0A4,4 0 1,1 0,-4A4,4 0 0,1 4,0Z" style="opacity: 1; stroke-width: 1px; fill: rgb(253, 231, 37); fill-opacity: 1; stroke: rgb(136, 136, 136); stroke-opacity: 1;"/><path class="point" transform="translate(92.56,210.03)" d="M4,0A4,4 0 1,1 0,-4A4,4 0 0,1 4,0Z" style="opacity: 1; stroke-width: 1px; fill: rgb(253, 231, 37); fill-opacity: 1; stroke: rgb(136, 136, 136); stroke-opacity: 1;"/><path class="point" transform="translate(76.49,184.96)" d="M4,0A4,4 0 1,1 0,-4A4,4 0 0,1 4,0Z" style="opacity: 1; stroke-width: 1px; fill: rgb(253, 231, 37); fill-opacity: 1; stroke: rgb(136, 136, 136); stroke-opacity: 1;"/><path class="point" transform="translate(58.88,212.94)" d="M4,0A4,4 0 1,1 0,-4A4,4 0 0,1 4,0Z" style="opacity: 1; stroke-width: 1px; fill: rgb(253, 231, 37); fill-opacity: 1; stroke: rgb(136, 136, 136); stroke-opacity: 1;"/><path class="point" transform="translate(76.38,243.98)" d="M4,0A4,4 0 1,1 0,-4A4,4 0 0,1 4,0Z" style="opacity: 1; stroke-width: 1px; fill: rgb(253, 231, 37); fill-opacity: 1; stroke: rgb(136, 136, 136); stroke-opacity: 1;"/><path class="point" transform="translate(96.68,258.03)" d="M4,0A4,4 0 1,1 0,-4A4,4 0 0,1 4,0Z" style="opacity: 1; stroke-width: 1px; fill: rgb(253, 231, 37); fill-opacity: 1; stroke: rgb(136, 136, 136); stroke-opacity: 1;"/><path class="point" transform="translate(239.93,96.36)" d="M4,0A4,4 0 1,1 0,-4A4,4 0 0,1 4,0Z" style="opacity: 1; stroke-width: 1px; fill: rgb(253, 231, 37); fill-opacity: 1; stroke: rgb(136, 136, 136); stroke-opacity: 1;"/><path class="point" transform="translate(227.11,61.98)" d="M4,0A4,4 0 1,1 0,-4A4,4 0 0,1 4,0Z" style="opacity: 1; stroke-width: 1px; fill: rgb(253, 231, 37); fill-opacity: 1; stroke: rgb(136, 136, 136); stroke-opacity: 1;"/><path class="point" transform="translate(245.09,148.12)" d="M4,0A4,4 0 1,1 0,-4A4,4 0 0,1 4,0Z" style="opacity: 1; stroke-width: 1px; fill: rgb(253, 231, 37); fill-opacity: 1; stroke: rgb(136, 136, 136); stroke-opacity: 1;"/><path class="point" transform="translate(223.72,169.81)" d="M4,0A4,4 0 1,1 0,-4A4,4 0 0,1 4,0Z" style="opacity: 1; stroke-width: 1px; fill: rgb(253, 231, 37); fill-opacity: 1; stroke: rgb(136, 136, 136); stroke-opacity: 1;"/><path class="point" transform="translate(260.27,186.82)" d="M4,0A4,4 0 1,1 0,-4A4,4 0 0,1 4,0Z" style="opacity: 1; stroke-width: 1px; fill: rgb(253, 231, 37); fill-opacity: 1; stroke: rgb(136, 136, 136); stroke-opacity: 1;"/><path class="point" transform="translate(278.22,210.6)" d="M4,0A4,4 0 1,1 0,-4A4,4 0 0,1 4,0Z" style="opacity: 1; stroke-width: 1px; fill: rgb(253, 231, 37); fill-opacity: 1; stroke: rgb(136, 136, 136); stroke-opacity: 1;"/><path class="point" transform="translate(284.85,175.04)" d="M4,0A4,4 0 1,1 0,-4A4,4 0 0,1 4,0Z" style="opacity: 1; stroke-width: 1px; fill: rgb(253, 231, 37); fill-opacity: 1; stroke: rgb(136, 136, 136); stroke-opacity: 1;"/><path class="point" transform="translate(67.87,274.27)" d="M4,0A4,4 0 1,1 0,-4A4,4 0 0,1 4,0Z" style="opacity: 1; stroke-width: 1px; fill: rgb(253, 231, 37); fill-opacity: 1; stroke: rgb(136, 136, 136); stroke-opacity: 1;"/><path class="point" transform="translate(90.68,295.46)" d="M4,0A4,4 0 1,1 0,-4A4,4 0 0,1 4,0Z" style="opacity: 1; stroke-width: 1px; fill: rgb(253, 231, 37); fill-opacity: 1; stroke: rgb(136, 136, 136); stroke-opacity: 1;"/><path class="point" transform="translate(120.77,301.65)" d="M4,0A4,4 0 1,1 0,-4A4,4 0 0,1 4,0Z" style="opacity: 1; stroke-width: 1px; fill: rgb(253, 231, 37); fill-opacity: 1; stroke: rgb(136, 136, 136); stroke-opacity: 1;"/><path class="point" transform="translate(149.38,297.7)" d="M4,0A4,4 0 1,1 0,-4A4,4 0 0,1 4,0Z" style="opacity: 1; stroke-width: 1px; fill: rgb(253, 231, 37); fill-opacity: 1; stroke: rgb(136, 136, 136); stroke-opacity: 1;"/><path class="point" transform="translate(177.63,289.63)" d="M4,0A4,4 0 1,1 0,-4A4,4 0 0,1 4,0Z" style="opacity: 1; stroke-width: 1px; fill: rgb(253, 231, 37); fill-opacity: 1; stroke: rgb(136, 136, 136); stroke-opacity: 1;"/><path class="point" transform="translate(191.49,310.5)" d="M4,0A4,4 0 1,1 0,-4A4,4 0 0,1 4,0Z" style="opacity: 1; stroke-width: 1px; fill: rgb(253, 231, 37); fill-opacity: 1; stroke: rgb(136, 136, 136); stroke-opacity: 1;"/><path class="point" transform="translate(201.93,273.79)" d="M4,0A4,4 0 1,1 0,-4A4,4 0 0,1 4,0Z" style="opacity: 1; stroke-width: 1px; fill: rgb(253, 231, 37); fill-opacity: 1; stroke: rgb(136, 136, 136); stroke-opacity: 1;"/><path class="point" transform="translate(227.2,267.99)" d="M4,0A4,4 0 1,1 0,-4A4,4 0 0,1 4,0Z" style="opacity: 1; stroke-width: 1px; fill: rgb(253, 231, 37); fill-opacity: 1; stroke: rgb(136, 136, 136); stroke-opacity: 1;"/><path class="point" transform="translate(242.98,247.69)" d="M4,0A4,4 0 1,1 0,-4A4,4 0 0,1 4,0Z" style="opacity: 1; stroke-width: 1px; fill: rgb(253, 231, 37); fill-opacity: 1; stroke: rgb(136, 136, 136); stroke-opacity: 1;"/><path class="point" transform="translate(246.91,218.93)" d="M4,0A4,4 0 1,1 0,-4A4,4 0 0,1 4,0Z" style="opacity: 1; stroke-width: 1px; fill: rgb(253, 231, 37); fill-opacity: 1; stroke: rgb(136, 136, 136); stroke-opacity: 1;"/><path class="point" transform="translate(118.13,181.89)" d="M4,0A4,4 0 1,1 0,-4A4,4 0 0,1 4,0Z" style="opacity: 1; stroke-width: 1px; fill: rgb(253, 231, 37); fill-opacity: 1; stroke: rgb(136, 136, 136); stroke-opacity: 1;"/><path class="point" transform="translate(142.6,159.83)" d="M4,0A4,4 0 1,1 0,-4A4,4 0 0,1 4,0Z" style="opacity: 1; stroke-width: 1px; fill: rgb(253, 231, 37); fill-opacity: 1; stroke: rgb(136, 136, 136); stroke-opacity: 1;"/><path class="point" transform="translate(161.55,134.54)" d="M4,0A4,4 0 1,1 0,-4A4,4 0 0,1 4,0Z" style="opacity: 1; stroke-width: 1px; fill: rgb(253, 231, 37); fill-opacity: 1; stroke: rgb(136, 136, 136); stroke-opacity: 1;"/><path class="point" transform="translate(180.29,107.01)" d="M4,0A4,4 0 1,1 0,-4A4,4 0 0,1 4,0Z" style="opacity: 1; stroke-width: 1px; fill: rgb(253, 231, 37); fill-opacity: 1; stroke: rgb(136, 136, 136); stroke-opacity: 1;"/><path class="point" transform="translate(179.51,75.48)" d="M4,0A4,4 0 1,1 0,-4A4,4 0 0,1 4,0Z" style="opacity: 1; stroke-width: 1px; fill: rgb(253, 231, 37); fill-opacity: 1; stroke: rgb(136, 136, 136); stroke-opacity: 1;"/><path class="point" transform="translate(210.1,113.66)" d="M4,0A4,4 0 1,1 0,-4A4,4 0 0,1 4,0Z" style="opacity: 1; stroke-width: 1px; fill: rgb(253, 231, 37); fill-opacity: 1; stroke: rgb(136, 136, 136); stroke-opacity: 1;"/><path class="point" transform="translate(244.88,116.95)" d="M4,0A4,4 0 1,1 0,-4A4,4 0 0,1 4,0Z" style="opacity: 1; stroke-width: 1px; fill: rgb(253, 231, 37); fill-opacity: 1; stroke: rgb(136, 136, 136); stroke-opacity: 1;"/><path class="point" transform="translate(271.01,101.13)" d="M4,0A4,4 0 1,1 0,-4A4,4 0 0,1 4,0Z" style="opacity: 1; stroke-width: 1px; fill: rgb(253, 231, 37); fill-opacity: 1; stroke: rgb(136, 136, 136); stroke-opacity: 1;"/><path class="point" transform="translate(259.98,76.95)" d="M4,0A4,4 0 1,1 0,-4A4,4 0 0,1 4,0Z" style="opacity: 1; stroke-width: 1px; fill: rgb(253, 231, 37); fill-opacity: 1; stroke: rgb(136, 136, 136); stroke-opacity: 1;"/></g><g class="text"/></g></g></g><g class="overplot"/><path class="xlines-above crisp" d="M0,0" style="fill: none;"/><path class="ylines-above crisp" d="M0,0" style="fill: none;"/><g class="overlines-above"/><g class="xaxislayer-above"/><g class="yaxislayer-above"/><g class="overaxes-above"/></g></g><g class="polarlayer"/><g class="smithlayer"/><g class="ternarylayer"/><g class="geolayer"/><g class="funnelarealayer"/><g class="pielayer"/><g class="iciclelayer"/><g class="treemaplayer"/><g class="sunburstlayer"/><g class="glimages"/><defs id="topdefs-ddb788"><g class="clips"/></defs><g class="layer-above"><g class="imagelayer"/><g class="shapelayer"/></g><g class="infolayer"><g class="cb6062ad51-f356-4c74-a072-0fe6a2107007 colorbar" transform="translate(30,40)"><rect class="cbbg" x="308.5" y="0" width="56.015625" height="331" style="fill: rgb(0, 0, 0); fill-opacity: 0; stroke: rgb(68, 68, 68); stroke-opacity: 1; stroke-width: 0;"/><g class="cbfills" transform="translate(0,10)"><rect class="cbfill gradient_filled" style="fill: url('#gddb788-cb6062ad51-f356-4c74-a072-0fe6a2107007');" x="319" y="0" width="15" height="310"/></g><g class="cblines" transform="translate(0,10)"/><g class="cbaxis crisp" transform="translate(0,-40)"><g class="ycb6062ad51-f356-4c74-a072-0fe6a2107007tick"><text text-anchor="start" x="337.4" y="4.199999999999999" transform="translate(0,360)" style="font-family: 'Open Sans', verdana, arial, sans-serif; font-size: 12px; fill: rgb(36, 36, 36); fill-opacity: 1; white-space: pre; opacity: 1;">1</text></g><g class="ycb6062ad51-f356-4c74-a072-0fe6a2107007tick"><text text-anchor="start" x="337.4" y="4.199999999999999" style="font-family: 'Open Sans', verdana, arial, sans-serif; font-size: 12px; fill: rgb(36, 36, 36); fill-opacity: 1; white-space: pre; opacity: 1;" transform="translate(0,298)">1.2</text></g><g class="ycb6062ad51-f356-4c74-a072-0fe6a2107007tick"><text text-anchor="start" x="337.4" y="4.199999999999999" style="font-family: 'Open Sans', verdana, arial, sans-serif; font-size: 12px; fill: rgb(36, 36, 36); fill-opacity: 1; white-space: pre; opacity: 1;" transform="translate(0,236)">1.4</text></g><g class="ycb6062ad51-f356-4c74-a072-0fe6a2107007tick"><text text-anchor="start" x="337.4" y="4.199999999999999" style="font-family: 'Open Sans', verdana, arial, sans-serif; font-size: 12px; fill: rgb(36, 36, 36); fill-opacity: 1; white-space: pre; opacity: 1;" transform="translate(0,174)">1.6</text></g><g class="ycb6062ad51-f356-4c74-a072-0fe6a2107007tick"><text text-anchor="start" x="337.4" y="4.199999999999999" style="font-family: 'Open Sans', verdana, arial, sans-serif; font-size: 12px; fill: rgb(36, 36, 36); fill-opacity: 1; white-space: pre; opacity: 1;" transform="translate(0,112)">1.8</text></g><g class="ycb6062ad51-f356-4c74-a072-0fe6a2107007tick"><text text-anchor="start" x="337.4" y="4.199999999999999" style="font-family: 'Open Sans', verdana, arial, sans-serif; font-size: 12px; fill: rgb(36, 36, 36); fill-opacity: 1; white-space: pre; opacity: 1;" transform="translate(0,49.99999999999999)">2</text></g></g><g class="cbtitleunshift" transform="translate(-30,-40)"><g class="cbtitle"/></g><rect class="cboutline" x="319" y="10" width="15" height="310" style="stroke: rgb(68, 68, 68); stroke-opacity: 1; fill: none; stroke-width: 1;"/></g><g class="g-gtitle"/><g class="g-xtitle"/><g class="g-ytitle"/></g></svg>