<svg class="main-svg" xmlns="http://www.w3.org/2000/svg" xmlns:xlink="http://www.w3.org/1999/xlink" width="400" height="400" style="" viewBox="0 0 400 400"><rect x="0" y="0" width="400" height="400" style="fill: rgb(255, 255, 255); fill-opacity: 1;"/><defs id="defs-b5c774"><g class="clips"><clipPath id="clipb5c774xyplot" class="plotclip"><rect width="307" height="330"/></clipPath><clipPath class="axesclip" id="clipb5c774x"><rect x="30" y="0" width="307" height="400"/></clipPath><clipPath class="axesclip" id="clipb5c774y"><rect x="0" y="40" width="400" height="330"/></clipPath><clipPath class="axesclip" id="clipb5c774xy"><rect x="30" y="40" width="307" height="330"/></clipPath></g><g class="gradients"><linearGradient x1="0" x2="0" y1="1" y2="0" id="gb5c774-cb59cd219b-6514-4b19-babd-b9c9cd2fc41d"><stop offset="0%" stop-color="rgb(68, 1, 84)" stop-opacity="1"/><stop offset="11.111111%" stop-color="rgb(72, 40, 120)" stop-opacity="1"/><stop offset="22.222222%" stop-color="rgb(62, 73, 137)" stop-opacity="1"/><stop offset="33.333333%" stop-color="rgb(49, 104, 142)" stop-opacity="1"/><stop offset="44.444444%" stop-color="rgb(38, 130, 142)" stop-opacity="1"/><stop offset="55.555556%" stop-color="rgb(31, 158, 137)" stop-opacity="1"/><stop offset="66.666667%" stop-color="rgb(53, 183, 121)" stop-opacity="1"/><stop offset="77.777778%" stop-color="rgb(110, 206, 88)" stop-opacity="1"/><stop offset="88.888889%" stop-color="rgb(181, 222, 43)" stop-opacity="1"/><stop offset="100%" stop-color="rgb(253, 231, 37)" stop-opacity="1"/></linearGradient></g><g class="patterns"/></defs><g class="bglayer"/><g class="layer-below"><g class="imagelayer"/><g class="shapelayer"/></g><g class="cartesianlayer"><g class="subplot xy"><g class="layer-subplot"><g class="shapelayer"/><g class="imagelayer"/></g><g class="minor-gridlayer"><g class="x"/><g class="y"/></g><g class="gridlayer"><g class="x"/><g class="y"/></g><g class="zerolinelayer"/><path class="xlines-below"/><path class="ylines-below"/><g class="overlines-below"/><g class="xaxislayer-below"/><g class="yaxislayer-below"/><g class="overaxes-below"/><g class="plot" transform="translate(30,40)" clip-path="url(#clipb5c774xyplot)"><g class="scatterlayer mlayer"><g class="trace scatter tracec349795b-8b24-4bf6-b8ec-c976615c7cef" style="stroke-miterlimit: 2; opacity: 1;"><g class="fills"/><g class="errorbars"/><g class="lines"><path class="js-line" d="M30.61,137.28L18.85,134.11" style="vector-effect: none; fill: none; stroke: rgb(136, 136, 136); stroke-opacity: 1; stroke-width: 1px; opacity: 1;"/><path class="js-line" d="M30.61,137.28L46.36,141.69" style="vector-effect: none; fill: none; stroke: rgb(136, 136, 136); stroke-opacity: 1; stroke-width: 1px; opacity: 1;"/><path class="js-line" d="M46.36,141.69L65.05,147.14" style="vector-effect: none; fill: none; stroke: rgb(136, 136, 136); stroke-opacity: 1; stroke-width: 1px; opacity: 1;"/><path class="js-line" d="M65.05,147.14L82.99,159.5" style="vector-effect: none; fill: none; stroke: rgb(136, 136, 136); stroke-opacity: 1; stroke-width: 1px; opacity: 1;"/><path class="js-line" d="M65.05,147.14L58.13,166.21" style="vector-effect: none; fill: none; stroke: rgb(136, 136, 136); stroke-opacity: 1; stroke-width: 1px; opacity: 1;"/><path class="js-line" d="M65.05,147.14L72.81,125.27" style="vector-effect: none; fill: none; stroke: rgb(136, 136, 136); stroke-opacity: 1; stroke-width: 1px; opacity: 1;"/><path class="js-line" d="M222.31,215.72L236.4,216.51" style="vector-effect: none; fill: none; stroke: rgb(136, 136, 136); stroke-opacity: 1; stroke-width: 1px; opacity: 1;"/><path class="js-line" d="M222.31,215.72L206.87,213.82" style="vector-effect: none; fill: none; stroke: rgb(136, 136, 136); stroke-opacity: 1; stroke-width: 1px; opacity: 1;"/><path class="js-line" d="M236.4,216.51L247.34,216.97" style="vector-effect: none; fill: none; stroke: rgb(136, 136, 136); stroke-opacity: 1; stroke-width: 1px; opacity: 1;"/><path class="js-line" d="M206.87,213.82L178.75,204.92" style="vector-effect: none; fill: none; stroke: rgb(136, 136, 136); stroke-opacity: 1; stroke-width: 1px; opacity: 1;"/><path class="js-line" d="M206.87,213.82L225.35,229.53" style="vector-effect: none; fill: none; stroke: rgb(136, 136, 136); stroke-opacity: 1; stroke-width: 1px; opacity: 1;"/><path class="js-line" d="M206.87,213.82L214.44,201.54" style="vector-effect: none; fill: none; stroke: rgb(136, 136, 136); stroke-opacity: 1; stroke-width: 1px; opacity: 1;"/><path class="js-line" d="M170.99,44.17L172.34,30" style="vector-effect: none; fill: none; stroke: rgb(136, 136, 136); stroke-opacity: 1; stroke-width: 1px; opacity: 1;"/><path class="js-line" d="M170.99,44.17L169.07,61.31" style="vector-effect: none; fill: none; stroke: rgb(136, 136, 136); stroke-opacity: 1; stroke-width: 1px; opacity: 1;"/><path class="js-line" d="M172.34,30L173.28,19.5" style="vector-effect: none; fill: none; stroke: rgb(136, 136, 136); stroke-opacity: 1; stroke-width: 1px; opacity: 1;"/><path class="js-line" d="M169.07,61.31L192.17,73.1" style="vector-effect: none; fill: none; stroke: rgb(136, 136, 136); stroke-opacity: 1; stroke-width: 1px; opacity: 1;"/><path class="js-line" d="M169.07,61.31L162.22,62.13" style="vector-effect: none; fill: none; stroke: rgb(136, 136, 136); stroke-opacity: 1; stroke-width: 1px; opacity: 1;"/><path class="js-line" d="M169.07,61.31L143.47,65.98" style="vector-effect: none; fill: none; stroke: rgb(136, 136, 136); stroke-opacity: 1; stroke-width: 1px; opacity: 1;"/><path class="js-line" d="M175.99,161.2L180.56,150.92" style="vector-effect: none; fill: none; stroke: rgb(136, 136, 136); stroke-opacity: 1; stroke-width: 1px; opacity: 1;"/><path class="js-line" d="M175.99,161.2L172.73,172.39" style="vector-effect: none; fill: none; stroke: rgb(136, 136, 136); stroke-opacity: 1; stroke-width: 1px; opacity: 1;"/><path class="js-line" d="M180.56,150.92L184.6,142.76" style="vector-effect: none; fill: none; stroke: rgb(136, 136, 136); stroke-opacity: 1; stroke-width: 1px; opacity: 1;"/><path class="js-line" d="M172.73,172.39L166.63,152.84" style="vector-effect: none; fill: none; stroke: rgb(136, 136, 136); stroke-opacity: 1; stroke-width: 1px; opacity: 1;"/><path class="js-line" d="M172.73,172.39L167.21,194.75" style="vector-effect: none; fill: none; stroke: rgb(136, 136, 136); stroke-opacity: 1; stroke-width: 1px; opacity: 1;"/><path class="js-line" d="M172.73,172.39L189.92,172.21" style="vector-effect: none; fill: none; stroke: rgb(136, 136, 136); stroke-opacity: 1; stroke-width: 1px; opacity: 1;"/><path class="js-line" d="M82.99,159.5L102.81,172.09" style="vector-effect: none; fill: none; stroke: rgb(136, 136, 136); stroke-opacity: 1; stroke-width: 1px; opacity: 1;"/><path class="js-line" d="M102.81,172.09L124.26,185" style="vector-effect: none; fill: none; stroke: rgb(136, 136, 136); stroke-opacity: 1; stroke-width: 1px; opacity: 1;"/><path class="js-line" d="M124.26,185L111.42,188.49" style="vector-effect: none; fill: none; stroke: rgb(136, 136, 136); stroke-opacity: 1; stroke-width: 1px; opacity: 1;"/><path class="js-line" d="M124.26,185L150.86,195.27" style="vector-effect: none; fill: none; stroke: rgb(136, 136, 136); stroke-opacity: 1; stroke-width: 1px; opacity: 1;"/><path class="js-line" d="M111.42,188.49L101.34,191.46" style="vector-effect: none; fill: none; stroke: rgb(136, 136, 136); stroke-opacity: 1; stroke-width: 1px; opacity: 1;"/><path class="js-line" d="M150.86,195.27L178.75,204.92" style="vector-effect: none; fill: none; stroke: rgb(136, 136, 136); stroke-opacity: 1; stroke-width: 1px; opacity: 1;"/><path class="js-line" d="M225.35,229.53L243.5,243.9" style="vector-effect: none; fill: none; stroke: rgb(136, 136, 136); stroke-opacity: 1; stroke-width: 1px; opacity: 1;"/><path class="js-line" d="M243.5,243.9L260.67,257.21" style="vector-effect: none; fill: none; stroke: rgb(136, 136, 136); stroke-opacity: 1; stroke-width: 1px; opacity: 1;"/><path class="js-line" d="M260.67,257.21L274.74,270.13" style="vector-effect: none; fill: none; stroke: rgb(136, 136, 136); stroke-opacity: 1; stroke-width: 1px; opacity: 1;"/><path class="js-line" d="M274.74,270.13L284.69,282.95" style="vector-effect: none; fill: none; stroke: rgb(136, 136, 136); stroke-opacity: 1; stroke-width: 1px; opacity: 1;"/><path class="js-line" d="M284.69,282.95L288.65,295.47" style="vector-effect: none; fill: none; stroke: rgb(136, 136, 136); stroke-opacity: 1; stroke-width: 1px; opacity: 1;"/><path class="js-line" d="M288.65,295.47L283.26,305.46" style="vector-effect: none; fill: none; stroke: rgb(136, 136, 136); stroke-opacity: 1; stroke-width: 1px; opacity: 1;"/><path class="js-line" d="M283.26,305.46L270.02,307.72" style="vector-effect: none; fill: none; stroke: rgb(136, 136, 136); stroke-opacity: 1; stroke-width: 1px; opacity: 1;"/><path class="js-line" d="M270.02,307.72L254.62,303.23" style="vector-effect: none; fill: none; stroke: rgb(136, 136, 136); stroke-opacity: 1; stroke-width: 1px; opacity: 1;"/><path class="js-line" d="M254.62,303.23L238.56,294.36" style="vector-effect: none; fill: none; stroke: rgb(136, 136, 136); stroke-opacity: 1; stroke-width: 1px; opacity: 1;"/><path class="js-line" d="M238.56,294.36L221.93,282.47" style="vector-effect: none; fill: none; stroke: rgb(136, 136, 136); stroke-opacity: 1; stroke-width: 1px; opacity: 1;"/><path class="js-line" d="M221.93,282.47L237.68,262.24" style="vector-effect: none; fill: none; stroke: rgb(136, 136, 136); stroke-opacity: 1; stroke-width: 1px; opacity: 1;"/><path class="js-line" d="M221.93,282.47L213.54,296.89" style="vector-effect: none; fill: none; stroke: rgb(136, 136, 136); stroke-opacity: 1; stroke-width: 1px; opacity: 1;"/><path class="js-line" d="M221.93,282.47L195.78,281.72" style="vector-effect: none; fill: none; stroke: rgb(136, 136, 136); stroke-opacity: 1; stroke-width: 1px; opacity: 1;"/><path class="js-line" d="M237.68,262.24L251.36,240.26" style="vector-effect: none; fill: none; stroke: rgb(136, 136, 136); stroke-opacity: 1; stroke-width: 1px; opacity: 1;"/><path class="js-line" d="M251.36,240.26L260.75,217" style="vector-effect: none; fill: none; stroke: rgb(136, 136, 136); stroke-opacity: 1; stroke-width: 1px; opacity: 1;"/><path class="js-line" d="M260.75,217L264.64,192.94" style="vector-effect: none; fill: none; stroke: rgb(136, 136, 136); stroke-opacity: 1; stroke-width: 1px; opacity: 1;"/><path class="js-line" d="M264.64,192.94L263.45,168.96" style="vector-effect: none; fill: none; stroke: rgb(136, 136, 136); stroke-opacity: 1; stroke-width: 1px; opacity: 1;"/><path class="js-line" d="M263.45,168.96L256.91,145.77" style="vector-effect: none; fill: none; stroke: rgb(136, 136, 136); stroke-opacity: 1; stroke-width: 1px; opacity: 1;"/><path class="js-line" d="M256.91,145.77L245.82,124.23" style="vector-effect: none; fill: none; stroke: rgb(136, 136, 136); stroke-opacity: 1; stroke-width: 1px; opacity: 1;"/><path class="js-line" d="M245.82,124.23L230.99,104.76" style="vector-effect: none; fill: none; stroke: rgb(136, 136, 136); stroke-opacity: 1; stroke-width: 1px; opacity: 1;"/><path class="js-line" d="M230.99,104.76L212.95,87.66" style="vector-effect: none; fill: none; stroke: rgb(136, 136, 136); stroke-opacity: 1; stroke-width: 1px; opacity: 1;"/><path class="js-line" d="M212.95,87.66L192.17,73.1" style="vector-effect: none; fill: none; stroke: rgb(136, 136, 136); stroke-opacity: 1; stroke-width: 1px; opacity: 1;"/><path class="js-line" d="M162.22,62.13L160.86,71.96" style="vector-effect: none; fill: none; stroke: rgb(136, 136, 136); stroke-opacity: 1; stroke-width: 1px; opacity: 1;"/><path class="js-line" d="M160.86,71.96L160.16,84.49" style="vector-effect: none; fill: none; stroke: rgb(136, 136, 136); stroke-opacity: 1; stroke-width: 1px; opacity: 1;"/><path class="js-line" d="M160.16,84.49L159.28,99.16" style="vector-effect: none; fill: none; stroke: rgb(136, 136, 136); stroke-opacity: 1; stroke-width: 1px; opacity: 1;"/><path class="js-line" d="M159.28,99.16L153.9,92.85" style="vector-effect: none; fill: none; stroke: rgb(136, 136, 136); stroke-opacity: 1; stroke-width: 1px; opacity: 1;"/><path class="js-line" d="M159.28,99.16L160.88,115.97" style="vector-effect: none; fill: none; stroke: rgb(136, 136, 136); stroke-opacity: 1; stroke-width: 1px; opacity: 1;"/><path class="js-line" d="M160.88,115.97L163.13,133.82" style="vector-effect: none; fill: none; stroke: rgb(136, 136, 136); stroke-opacity: 1; stroke-width: 1px; opacity: 1;"/><path class="js-line" d="M163.13,133.82L166.63,152.84" style="vector-effect: none; fill: none; stroke: rgb(136, 136, 136); stroke-opacity: 1; stroke-width: 1px; opacity: 1;"/><path class="js-line" d="M167.21,194.75L163.03,216.71" style="vector-effect: none; fill: none; stroke: rgb(136, 136, 136); stroke-opacity: 1; stroke-width: 1px; opacity: 1;"/><path class="js-line" d="M163.03,216.71L160.61,237.66" style="vector-effect: none; fill: none; stroke: rgb(136, 136, 136); stroke-opacity: 1; stroke-width: 1px; opacity: 1;"/><path class="js-line" d="M160.61,237.66L159.98,257.46" style="vector-effect: none; fill: none; stroke: rgb(136, 136, 136); stroke-opacity: 1; stroke-width: 1px; opacity: 1;"/><path class="js-line" d="M159.98,257.46L161.28,276.01" style="vector-effect: none; fill: none; stroke: rgb(136, 136, 136); stroke-opacity: 1; stroke-width: 1px; opacity: 1;"/><path class="js-line" d="M161.28,276.01L166.17,292.32" style="vector-effect: none; fill: none; stroke: rgb(136, 136, 136); stroke-opacity: 1; stroke-width: 1px; opacity: 1;"/><path class="js-line" d="M166.17,292.32L175.06,304.66" style="vector-effect: none; fill: none; stroke: rgb(136, 136, 136); stroke-opacity: 1; stroke-width: 1px; opacity: 1;"/><path class="js-line" d="M175.06,304.66L188.14,310.5" style="vector-effect: none; fill: none; stroke: rgb(136, 136, 136); stroke-opacity: 1; stroke-width: 1px; opacity: 1;"/><path class="js-line" d="M188.14,310.5L202.23,307.23" style="vector-effect: none; fill: none; stroke: rgb(136, 136, 136); stroke-opacity: 1; stroke-width: 1px; opacity: 1;"/><path class="js-line" d="M202.23,307.23L213.54,296.89" style="vector-effect: none; fill: none; stroke: rgb(136, 136, 136); stroke-opacity: 1; stroke-width: 1px; opacity: 1;"/><path class="js-line" d="M195.78,281.72L169.65,278.62" style="vector-effect: none; fill: none; stroke: rgb(136, 136, 136); stroke-opacity: 1; stroke-width: 1px; opacity: 1;"/><path class="js-line" d="M169.65,278.62L143.84,273.1" style="vector-effect: none; fill: none; stroke: rgb(136, 136, 136); stroke-opacity: 1; stroke-width: 1px; opacity: 1;"/><path class="js-line" d="M143.84,273.1L120.3,264.69" style="vector-effect: none; fill: none; stroke: rgb(136, 136, 136); stroke-opacity: 1; stroke-width: 1px; opacity: 1;"/><path class="js-line" d="M120.3,264.69L99.48,253.41" style="vector-effect: none; fill: none; stroke: rgb(136, 136, 136); stroke-opacity: 1; stroke-width: 1px; opacity: 1;"/><path class="js-line" d="M99.48,253.41L81.97,239.43" style="vector-effect: none; fill: none; stroke: rgb(136, 136, 136); stroke-opacity: 1; stroke-width: 1px; opacity: 1;"/><path class="js-line" d="M81.97,239.43L68.45,223.07" style="vector-effect: none; fill: none; stroke: rgb(136, 136, 136); stroke-opacity: 1; stroke-width: 1px; opacity: 1;"/><path class="js-line" d="M68.45,223.07L59.65,204.9" style="vector-effect: none; fill: none; stroke: rgb(136, 136, 136); stroke-opacity: 1; stroke-width: 1px; opacity: 1;"/><path class="js-line" d="M59.65,204.9L56.2,185.74" style="vector-effect: none; fill: none; stroke: rgb(136, 136, 136); stroke-opacity: 1; stroke-width: 1px; opacity: 1;"/><path class="js-line" d="M56.2,185.74L58.13,166.21" style="vector-effect: none; fill: none; stroke: rgb(136, 136, 136); stroke-opacity: 1; stroke-width: 1px; opacity: 1;"/><path class="js-line" d="M143.47,65.98L119.86,74.69" style="vector-effect: none; fill: none; stroke: rgb(136, 136, 136); stroke-opacity: 1; stroke-width: 1px; opacity: 1;"/><path class="js-line" d="M119.86,74.69L98.61,86.85" style="vector-effect: none; fill: none; stroke: rgb(136, 136, 136); stroke-opacity: 1; stroke-width: 1px; opacity: 1;"/><path class="js-line" d="M98.61,86.85L90.53,79.05" style="vector-effect: none; fill: none; stroke: rgb(136, 136, 136); stroke-opacity: 1; stroke-width: 1px; opacity: 1;"/><path class="js-line" d="M98.61,86.85L83.97,105.03" style="vector-effect: none; fill: none; stroke: rgb(136, 136, 136); stroke-opacity: 1; stroke-width: 1px; opacity: 1;"/><path class="js-line" d="M83.97,105.03L72.81,125.27" style="vector-effect: none; fill: none; stroke: rgb(136, 136, 136); stroke-opacity: 1; stroke-width: 1px; opacity: 1;"/><path class="js-line" d="M189.92,172.21L206.53,172.96" style="vector-effect: none; fill: none; stroke: rgb(136, 136, 136); stroke-opacity: 1; stroke-width: 1px; opacity: 1;"/><path class="js-line" d="M206.53,172.96L221.74,176.14" style="vector-effect: none; fill: none; stroke: rgb(136, 136, 136); stroke-opacity: 1; stroke-width: 1px; opacity: 1;"/><path class="js-line" d="M221.74,176.14L234.63,169.29" style="vector-effect: none; fill: none; stroke: rgb(136, 136, 136); stroke-opacity: 1; stroke-width: 1px; opacity: 1;"/><path class="js-line" d="M221.74,176.14L220.05,188.88" style="vector-effect: none; fill: none; stroke: rgb(136, 136, 136); stroke-opacity: 1; stroke-width: 1px; opacity: 1;"/><path class="js-line" d="M234.63,169.29L244.49,164.19" style="vector-effect: none; fill: none; stroke: rgb(136, 136, 136); stroke-opacity: 1; stroke-width: 1px; opacity: 1;"/><path class="js-line" d="M220.05,188.88L214.44,201.54" style="vector-effect: none; fill: none; stroke: rgb(136, 136, 136); stroke-opacity: 1; stroke-width: 1px; opacity: 1;"/></g><g class="points"/><g class="text"/></g><g class="trace scatter trace59cd219b-6514-4b19-babd-b9c9cd2fc41d" style="stroke-miterlimit: 2; opacity: 1;"><g class="fills"/><g class="errorbars"/><g class="lines"/><g class="points"><path class="point" transform="translate(30.61,137.28)" d="M4.94,0A4.94,4.94 0 1,1 0,-4.94A4.94,4.94 0 0,1 4.94,0Z" style="opacity: 1; stroke-width: 1px; fill: rgb(71, 34, 114); fill-opacity: 1; stroke: rgb(136, 136, 136); stroke-opacity: 1;"/><path class="point" transform="translate(18.85,134.11)" d="M4,0A4,4 0 1,1 0,-4A4,4 0 0,1 4,0Z" style="opacity: 1; stroke-width: 1px; fill: rgb(68, 1, 84); fill-opacity: 1; stroke: rgb(136, 136, 136); stroke-opacity: 1;"/><path class="point" transform="translate(46.36,141.69)" d="M4.28,0A4.28,4.28 0 1,1 0,-4.28A4.28,4.28 0 0,1 4.28,0Z" style="opacity: 1; stroke-width: 1px; fill: rgb(56, 88, 139); fill-opacity: 1; stroke: rgb(136, 136, 136); stroke-opacity: 1;"/><path class="point" transform="translate(65.05,147.14)" d="M4,0A4,4 0 1,1 0,-4A4,4 0 0,1 4,0Z" style="opacity: 1; stroke-width: 1px; fill: rgb(59, 186, 117); fill-opacity: 1; stroke: rgb(136, 136, 136); stroke-opacity: 1;"/><path class="point" transform="translate(222.31,215.72)" d="M5,0A5,5 0 1,1 0,-5A5,5 0 0,1 5,0Z" style="opacity: 1; stroke-width: 1px; fill: rgb(59, 81, 138); fill-opacity: 1; stroke: rgb(136, 136, 136); stroke-opacity: 1;"/><path class="point" transform="translate(236.4,216.51)" d="M4.56,0A4.56,4.56 0 1,1 0,-4.56A4.56,4.56 0 0,1 4.56,0Z" style="opacity: 1; stroke-width: 1px; fill: rgb(67, 57, 129); fill-opacity: 1; stroke: rgb(136, 136, 136); stroke-opacity: 1;"/><path class="point" transform="translate(247.34,216.97)" d="M4,0A4,4 0 1,1 0,-4A4,4 0 0,1 4,0Z" style="opacity: 1; stroke-width: 1px; fill: rgb(72, 38, 118); fill-opacity: 1; stroke: rgb(136, 136, 136); stroke-opacity: 1;"/><path class="point" transform="translate(206.87,213.82)" d="M4,0A4,4 0 1,1 0,-4A4,4 0 0,1 4,0Z" style="opacity: 1; stroke-width: 1px; fill: rgb(33, 160, 136); fill-opacity: 1; stroke: rgb(136, 136, 136); stroke-opacity: 1;"/><path class="point" transform="translate(170.99,44.17)" d="M4.69,0A4.69,4.69 0 1,1 0,-4.69A4.69,4.69 0 0,1 4.69,0Z" style="opacity: 1; stroke-width: 1px; fill: rgb(45, 114, 142); fill-opacity: 1; stroke: rgb(136, 136, 136); stroke-opacity: 1;"/><path class="point" transform="translate(172.34,30)" d="M4.82,0A4.82,4.82 0 1,1 0,-4.82A4.82,4.82 0 0,1 4.82,0Z" style="opacity: 1; stroke-width: 1px; fill: rgb(56, 88, 139); fill-opacity: 1; stroke: rgb(136, 136, 136); stroke-opacity: 1;"/><path class="point" transform="translate(173.28,19.5)" d="M4,0A4,4 0 1,1 0,-4A4,4 0 0,1 4,0Z" style="opacity: 1; stroke-width: 1px; fill: rgb(63, 71, 136); fill-opacity: 1; stroke: rgb(136, 136, 136); stroke-opacity: 1;"/><path class="point" transform="translate(169.07,61.31)" d="M4,0A4,4 0 1,1 0,-4A4,4 0 0,1 4,0Z" style="opacity: 1; stroke-width: 1px; fill: rgb(72, 191, 110); fill-opacity: 1; stroke: rgb(136, 136, 136); stroke-opacity: 1;"/><path class="point" transform="translate(175.99,161.2)" d="M4.92,0A4.92,4.92 0 1,1 0,-4.92A4.92,4.92 0 0,1 4.92,0Z" style="opacity: 1; stroke-width: 1px; fill: rgb(37, 136, 141); fill-opacity: 1; stroke: rgb(136, 136, 136); stroke-opacity: 1;"/><path class="point" transform="translate(180.56,150.92)" d="M4.82,0A4.82,4.82 0 1,1 0,-4.82A4.82,4.82 0 0,1 4.82,0Z" style="opacity: 1; stroke-width: 1px; fill: rgb(44, 117, 142); fill-opacity: 1; stroke: rgb(136, 136, 136); stroke-opacity: 1;"/><path class="point" transform="translate(172.73,172.39)" d="M4,0A4,4 0 1,1 0,-4A4,4 0 0,1 4,0Z" style="opacity: 1; stroke-width: 1px; fill: rgb(117, 207, 84); fill-opacity: 1; stroke: rgb(136, 136, 136); stroke-opacity: 1;"/><path class="point" transform="translate(184.6,142.76)" d="M4,0A4,4 0 1,1 0,-4A4,4 0 0,1 4,0Z" style="opacity: 1; stroke-width: 1px; fill: rgb(50, 103, 142); fill-opacity: 1; stroke: rgb(136, 136, 136); stroke-opacity: 1;"/><path class="point" transform="translate(82.99,159.5)" d="M4,0A4,4 0 1,1 0,-4A4,4 0 0,1 4,0Z" style="opacity: 1; stroke-width: 1px; fill: rgb(38, 129, 142); fill-opacity: 1; stroke: rgb(136, 136, 136); stroke-opacity: 1;"/><path class="point" transform="translate(102.81,172.09)" d="M4,0A4,4 0 1,1 0,-4A4,4 0 0,1 4,0Z" style="opacity: 1; stroke-width: 1px; fill: rgb(38, 129, 142); fill-opacity: 1; stroke: rgb(136, 136, 136); stroke-opacity: 1;"/><path class="point" transform="translate(124.26,185)" d="M4,0A4,4 0 1,1 0,-4A4,4 0 0,1 4,0Z" style="opacity: 1; stroke-width: 1px; fill: rgb(38, 129, 142); fill-opacity: 1; stroke: rgb(136, 136, 136); stroke-opacity: 1;"/><path class="point" transform="translate(111.42,188.49)" d="M4,0A4,4 0 1,1 0,-4A4,4 0 0,1 4,0Z" style="opacity: 1; stroke-width: 1px; fill: rgb(38, 129, 142); fill-opacity: 1; stroke: rgb(136, 136, 136); stroke-opacity: 1;"/><path class="point" transform="translate(101.34,191.46)" d="M4,0A4,4 0 1,1 0,-4A4,4 0 0,1 4,0Z" style="opacity: 1; stroke-width: 1px; fill: rgb(38, 129, 142); fill-opacity: 1; stroke: rgb(136, 136, 136); stroke-opacity: 1;"/><path class="point" transform="translate(150.86,195.27)" d="M4,0A4,4 0 1,1 0,-4A4,4 0 0,1 4,0Z" style="opacity: 1; stroke-width: 1px; fill: rgb(38, 129, 142); fill-opacity: 1; stroke: rgb(136, 136, 136); stroke-opacity: 1;"/><path class="point" transform="translate(178.75,204.92)" d="M4,0A4,4 0 1,1 0,-4A4,4 0 0,1 4,0Z" style="opacity: 1; stroke-width: 1px; fill: rgb(38, 129, 142); fill-opacity: 1; stroke: rgb(136, 136, 136); stroke-opacity: 1;"/><path class="point" transform="translate(225.35,229.53)" d="M4,0A4,4 0 1,1 0,-4A4,4 0 0,1 4,0Z" style="opacity: 1; stroke-width: 1px; fill: rgb(31, 157, 137); fill-opacity: 1; stroke: rgb(136, 136, 136); stroke-opacity: 1;"/><path class="point" transform="translate(243.5,243.9)" d="M4,0A4,4 0 1,1 0,-4A4,4 0 0,1 4,0Z" style="opacity: 1; stroke-width: 1px; fill: rgb(31, 157, 137); fill-opacity: 1; stroke: rgb(136, 136, 136); stroke-opacity: 1;"/><path class="point" transform="translate(260.67,257.21)" d="M4,0A4,4 0 1,1 0,-4A4,4 0 0,1 4,0Z" style="opacity: 1; stroke-width: 1px; fill: rgb(31, 157, 137); fill-opacity: 1; stroke: rgb(136, 136, 136); stroke-opacity: 1;"/><path class="point" transform="translate(274.74,270.13)" d="M4,0A4,4 0 1,1 0,-4A4,4 0 0,1 4,0Z" style="opacity: 1; stroke-width: 1px; fill: rgb(31, 157, 137); fill-opacity: 1; stroke: rgb(136, 136, 136); stroke-opacity: 1;"/><path class="point" transform="translate(284.69,282.95)" d="M4,0A4,4 0 1,1 0,-4A4,4 0 0,1 4,0Z" style="opacity: 1; stroke-width: 1px; fill: rgb(31, 157, 137); fill-opacity: 1; stroke: rgb(136, 136, 136); stroke-opacity: 1;"/><path class="point" transform="translate(288.65,295.47)" d="M4,0A4,4 0 1,1 0,-4A4,4 0 0,1 4,0Z" style="opacity: 1; stroke-width: 1px; fill: rgb(31, 157, 137); fill-opacity: 1; stroke: rgb(136, 136, 136); stroke-opacity: 1;"/><path class="point" transform="translate(283.26,305.46)" d="M4,0A4,4 0 1,1 0,-4A4,4 0 0,1 4,0Z" style="opacity: 1; stroke-width: 1px; fill: rgb(31, 157, 137); fill-opacity: 1; stroke: rgb(136, 136, 136); stroke-opacity: 1;"/><path class="point" transform="translate(270.02,307.72)" d="M4,0A4,4 0 1,1 0,-4A4,4 0 0,1 4,0Z" style="opacity: 1; stroke-width: 1px; fill: rgb(31, 157, 137); fill-opacity: 1; stroke: rgb(136, 136, 136); stroke-opacity: 1;"/><path class="point" transform="translate(254.62,303.23)" d="M4,0A4,4 0 1,1 0,-4A4,4 0 0,1 4,0Z" style="opacity: 1; stroke-width: 1px; fill: rgb(31, 157, 137); fill-opacity: 1; stroke: rgb(136, 136, 136); stroke-opacity: 1;"/><path class="point" transform="translate(238.56,294.36)" d="M4,0A4,4 0 1,1 0,-4A4,4 0 0,1 4,0Z" style="opacity: 1; stroke-width: 1px; fill: rgb(31, 157, 137); fill-opacity: 1; stroke: rgb(136, 136, 136); stroke-opacity: 1;"/><path class="point" transform="translate(221.93,282.47)" d="M4,0A4,4 0 1,1 0,-4A4,4 0 0,1 4,0Z" style="opacity: 1; stroke-width: 1px; fill: rgb(52, 181, 122); fill-opacity: 1; stroke: rgb(136, 136, 136); stroke-opacity: 1;"/><path class="point" transform="translate(237.68,262.24)" d="M4,0A4,4 0 1,1 0,-4A4,4 0 0,1 4,0Z" style="opacity: 1; stroke-width: 1px; fill: rgb(31, 157, 137); fill-opacity: 1; stroke: rgb(136, 136, 136); stroke-opacity: 1;"/><path class="point" transform="translate(251.36,240.26)" d="M4,0A4,4 0 1,1 0,-4A4,4 0 0,1 4,0Z" style="opacity: 1; stroke-width: 1px; fill: rgb(31, 157, 137); fill-opacity: 1; stroke: rgb(136, 136, 136); stroke-opacity: 1;"/><path class="point" transform="translate(260.75,217)" d="M4,0A4,4 0 1,1 0,-4A4,4 0 0,1 4,0Z" style="opacity: 1; stroke-width: 1px; fill: rgb(31, 157, 137); fill-opacity: 1; stroke: rgb(136, 136, 136); stroke-opacity: 1;"/><path class="point" transform="translate(264.64,192.94)" d="M4,0A4,4 0 1,1 0,-4A4,4 0 0,1 4,0Z" style="opacity: 1; stroke-width: 1px; fill: rgb(31, 157, 137); fill-opacity: 1; stroke: rgb(136, 136, 136); stroke-opacity: 1;"/><path class="point" transform="translate(263.45,168.96)" d="M4,0A4,4 0 1,1 0,-4A4,4 0 0,1 4,0Z" style="opacity: 1; stroke-width: 1px; fill: rgb(31, 157, 137); fill-opacity: 1; stroke: rgb(136, 136, 136); stroke-opacity: 1;"/><path class="point" transform="translate(256.91,145.77)" d="M4,0A4,4 0 1,1 0,-4A4,4 0 0,1 4,0Z" style="opacity: 1; stroke-width: 1px; fill: rgb(31, 157, 137); fill-opacity: 1; stroke: rgb(136, 136, 136); stroke-opacity: 1;"/><path class="point" transform="translate(245.82,124.23)" d="M4,0A4,4 0 1,1 0,-4A4,4 0 0,1 4,0Z" style="opacity: 1; stroke-width: 1px; fill: rgb(31, 157, 137); fill-opacity: 1; stroke: rgb(136, 136, 136); stroke-opacity: 1;"/><path class="point" transform="translate(230.99,104.76)" d="M4,0A4,4 0 1,1 0,-4A4,4 0 0,1 4,0Z" style="opacity: 1; stroke-width: 1px; fill: rgb(31, 157, 137); fill-opacity: 1; stroke: rgb(136, 136, 136); stroke-opacity: 1;"/><path class="point" transform="translate(212.95,87.66)" d="M4,0A4,4 0 1,1 0,-4A4,4 0 0,1 4,0Z" style="opacity: 1; stroke-width: 1px; fill: rgb(31, 157, 137); fill-opacity: 1; stroke: rgb(136, 136, 136); stroke-opacity: 1;"/><path class="point" transform="translate(192.17,73.1)" d="M4,0A4,4 0 1,1 0,-4A4,4 0 0,1 4,0Z" style="opacity: 1; stroke-width: 1px; fill: rgb(31, 157, 137); fill-opacity: 1; stroke: rgb(136, 136, 136); stroke-opacity: 1;"/><path class="point" transform="translate(162.22,62.13)" d="M4,0A4,4 0 1,1 0,-4A4,4 0 0,1 4,0Z" style="opacity: 1; stroke-width: 1px; fill: rgb(52, 182, 121); fill-opacity: 1; stroke: rgb(136, 136, 136); stroke-opacity: 1;"/><path class="point" transform="translate(160.86,71.96)" d="M4,0A4,4 0 1,1 0,-4A4,4 0 0,1 4,0Z" style="opacity: 1; stroke-width: 1px; fill: rgb(52, 182, 121); fill-opacity: 1; stroke: rgb(136, 136, 136); stroke-opacity: 1;"/><path class="point" transform="translate(160.16,84.49)" d="M4,0A4,4 0 1,1 0,-4A4,4 0 0,1 4,0Z" style="opacity: 1; stroke-width: 1px; fill: rgb(52, 182, 121); fill-opacity: 1; stroke: rgb(136, 136, 136); stroke-opacity: 1;"/><path class="point" transform="translate(159.28,99.16)" d="M4,0A4,4 0 1,1 0,-4A4,4 0 0,1 4,0Z" style="opacity: 1; stroke-width: 1px; fill: rgb(52, 182, 121); fill-opacity: 1; stroke: rgb(136, 136, 136); stroke-opacity: 1;"/><path class="point" transform="translate(153.9,92.85)" d="M4,0A4,4 0 1,1 0,-4A4,4 0 0,1 4,0Z" style="opacity: 1; stroke-width: 1px; fill: rgb(52, 182, 121); fill-opacity: 1; stroke: rgb(136, 136, 136); stroke-opacity: 1;"/><path class="point" transform="translate(160.88,115.97)" d="M4,0A4,4 0 1,1 0,-4A4,4 0 0,1 4,0Z" style="opacity: 1; stroke-width: 1px; fill: rgb(52, 182, 121); fill-opacity: 1; stroke: rgb(136, 136, 136); stroke-opacity: 1;"/><path class="point" transform="translate(163.13,133.82)" d="M4,0A4,4 0 1,1 0,-4A4,4 0 0,1 4,0Z" style="opacity: 1; stroke-width: 1px; fill: rgb(52, 182, 121); fill-opacity: 1; stroke: rgb(136, 136, 136); stroke-opacity: 1;"/><path class="point" transform="translate(166.63,152.84)" d="M4,0A4,4 0 1,1 0,-4A4,4 0 0,1 4,0Z" style="opacity: 1; stroke-width: 1px; fill: rgb(52, 182, 121); fill-opacity: 1; stroke: rgb(136, 136, 136); stroke-opacity: 1;"/><path class="point" transform="translate(167.21,194.75)" d="M4,0A4,4 0 1,1 0,-4A4,4 0 0,1 4,0Z" style="opacity: 1; stroke-width: 1px; fill: rgb(109, 206, 89); fill-opacity: 1; stroke: rgb(136, 136, 136); stroke-opacity: 1;"/><path class="point" transform="translate(163.03,216.71)" d="M4,0A4,4 0 1,1 0,-4A4,4 0 0,1 4,0Z" style="opacity: 1; stroke-width: 1px; fill: rgb(109, 206, 89); fill-opacity: 1; stroke: rgb(136, 136, 136); stroke-opacity: 1;"/><path class="point" transform="translate(160.61,237.66)" d="M4,0A4,4 0 1,1 0,-4A4,4 0 0,1 4,0Z" style="opacity: 1; stroke-width: 1px; fill: rgb(109, 206, 89); fill-opacity: 1; stroke: rgb(136, 136, 136); stroke-opacity: 1;"/><path class="point" transform="translate(159.98,257.46)" d="M4,0A4,4 0 1,1 0,-4A4,4 0 0,1 4,0Z" style="opacity: 1; stroke-width: 1px; fill: rgb(109, 206, 89); fill-opacity: 1; stroke: rgb(136, 136, 136); stroke-opacity: 1;"/><path class="point" transform="translate(161.28,276.01)" d="M4,0A4,4 0 1,1 0,-4A4,4 0 0,1 4,0Z" style="opacity: 1; stroke-width: 1px; fill: rgb(109, 206, 89); fill-opacity: 1; stroke: rgb(136, 136, 136); stroke-opacity: 1;"/><path class="point" transform="translate(166.17,292.32)" d="M4,0A4,4 0 1,1 0,-4A4,4 0 0,1 4,0Z" style="opacity: 1; stroke-width: 1px; fill: rgb(109, 206, 89); fill-opacity: 1; stroke: rgb(136, 136, 136); stroke-opacity: 1;"/><path class="point" transform="translate(175.06,304.66)" d="M4,0A4,4 0 1,1 0,-4A4,4 0 0,1 4,0Z" style="opacity: 1; stroke-width: 1px; fill: rgb(109, 206, 89); fill-opacity: 1; stroke: rgb(136, 136, 136); stroke-opacity: 1;"/><path class="point" transform="translate(188.14,310.5)" d="M4,0A4,4 0 1,1 0,-4A4,4 0 0,1 4,0Z" style="opacity: 1; stroke-width: 1px; fill: rgb(109, 206, 89); fill-opacity: 1; stroke: rgb(136, 136, 136); stroke-opacity: 1;"/><path class="point" transform="translate(202.23,307.23)" d="M4,0A4,4 0 1,1 0,-4A4,4 0 0,1 4,0Z" style="opacity: 1; stroke-width: 1px; fill: rgb(109, 206, 89); fill-opacity: 1; stroke: rgb(136, 136, 136); stroke-opacity: 1;"/><path class="point" transform="translate(213.54,296.89)" d="M4,0A4,4 0 1,1 0,-4A4,4 0 0,1 4,0Z" style="opacity: 1; stroke-width: 1px; fill: rgb(109, 206, 89); fill-opacity: 1; stroke: rgb(136, 136, 136); stroke-opacity: 1;"/><path class="point" transform="translate(195.78,281.72)" d="M4,0A4,4 0 1,1 0,-4A4,4 0 0,1 4,0Z" style="opacity: 1; stroke-width: 1px; fill: rgb(109, 206, 89); fill-opacity: 1; stroke: rgb(136, 136, 136); stroke-opacity: 1;"/><path class="point" transform="translate(169.65,278.62)" d="M4,0A4,4 0 1,1 0,-4A4,4 0 0,1 4,0Z" style="opacity: 1; stroke-width: 1px; fill: rgb(109, 206, 89); fill-opacity: 1; stroke: rgb(136, 136, 136); stroke-opacity: 1;"/><path class="point" transform="translate(143.84,273.1)" d="M4,0A4,4 0 1,1 0,-4A4,4 0 0,1 4,0Z" style="opacity: 1; stroke-width: 1px; fill: rgb(109, 206, 89); fill-opacity: 1; stroke: rgb(136, 136, 136); stroke-opacity: 1;"/><path class="point" transform="translate(120.3,264.69)" d="M4,0A4,4 0 1,1 0,-4A4,4 0 0,1 4,0Z" style="opacity: 1; stroke-width: 1px; fill: rgb(109, 206, 89); fill-opacity: 1; stroke: rgb(136, 136, 136); stroke-opacity: 1;"/><path class="point" transform="translate(99.48,253.41)" d="M4,0A4,4 0 1,1 0,-4A4,4 0 0,1 4,0Z" style="opacity: 1; stroke-width: 1px; fill: rgb(109, 206, 89); fill-opacity: 1; stroke: rgb(136, 136, 136); stroke-opacity: 1;"/><path class="point" transform="translate(81.97,239.43)" d="M4,0A4,4 0 1,1 0,-4A4,4 0 0,1 4,0Z" style="opacity: 1; stroke-width: 1px; fill: rgb(109, 206, 89); fill-opacity: 1; stroke: rgb(136, 136, 136); stroke-opacity: 1;"/><path class="point" transform="translate(68.45,223.07)" d="M4,0A4,4 0 1,1 0,-4A4,4 0 0,1 4,0Z" style="opacity: 1; stroke-width: 1px; fill: rgb(109, 206, 89); fill-opacity: 1; stroke: rgb(136, 136, 136); stroke-opacity: 1;"/><path class="point" transform="translate(59.65,204.9)" d="M4,0A4,4 0 1,1 0,-4A4,4 0 0,1 4,0Z" style="opacity: 1; stroke-width: 1px; fill: rgb(109, 206, 89); fill-opacity: 1; stroke: rgb(136, 136, 136); stroke-opacity: 1;"/><path class="point" transform="translate(56.2,185.74)" d="M4,0A4,4 0 1,1 0,-4A4,4 0 0,1 4,0Z" style="opacity: 1; stroke-width: 1px; fill: rgb(109, 206, 89); fill-opacity: 1; stroke: rgb(136, 136, 136); stroke-opacity: 1;"/><path class="point" transform="translate(58.13,166.21)" d="M4,0A4,4 0 1,1 0,-4A4,4 0 0,1 4,0Z" style="opacity: 1; stroke-width: 1px; fill: rgb(109, 206, 89); fill-opacity: 1; stroke: rgb(136, 136, 136); stroke-opacity: 1;"/><path class="point" transform="translate(143.47,65.98)" d="M4,0A4,4 0 1,1 0,-4A4,4 0 0,1 4,0Z" style="opacity: 1; stroke-width: 1px; fill: rgb(180, 222, 43); fill-opacity: 1; stroke: rgb(136, 136, 136); stroke-opacity: 1;"/><path class="point" transform="translate(119.86,74.69)" d="M4,0A4,4 0 1,1 0,-4A4,4 0 0,1 4,0Z" style="opacity: 1; stroke-width: 1px; fill: rgb(180, 222, 43); fill-opacity: 1; stroke: rgb(136, 136, 136); stroke-opacity: 1;"/><path class="point" transform="translate(98.61,86.85)" d="M4,0A4,4 0 1,1 0,-4A4,4 0 0,1 4,0Z" style="opacity: 1; stroke-width: 1px; fill: rgb(180, 222, 43); fill-opacity: 1; stroke: rgb(136, 136, 136); stroke-opacity: 1;"/><path class="point" transform="translate(90.53,79.05)" d="M4,0A4,4 0 1,1 0,-4A4,4 0 0,1 4,0Z" style="opacity: 1; stroke-width: 1px; fill: rgb(180, 222, 43); fill-opacity: 1; stroke: rgb(136, 136, 136); stroke-opacity: 1;"/><path class="point" transform="translate(83.97,105.03)" d="M4,0A4,4 0 1,1 0,-4A4,4 0 0,1 4,0Z" style="opacity: 1; stroke-width: 1px; fill: rgb(180, 222, 43); fill-opacity: 1; stroke: rgb(136, 136, 136); stroke-opacity: 1;"/><path class="point" transform="translate(72.81,125.27)" d="M4,0A4,4 0 1,1 0,-4A4,4 0 0,1 4,0Z" style="opacity: 1; stroke-width: 1px; fill: rgb(180, 222, 43); fill-opacity: 1; stroke: rgb(136, 136, 136); stroke-opacity: 1;"/><path class="point" transform="translate(189.92,172.21)" d="M4,0A4,4 0 1,1 0,-4A4,4 0 0,1 4,0Z" style="opacity: 1; stroke-width: 1px; fill: rgb(253, 231, 37); fill-opacity: 1; stroke: rgb(136, 136, 136); stroke-opacity: 1;"/><path class="point" transform="translate(206.53,172.96)" d="M4,0A4,4 0 1,1 0,-4A4,4 0 0,1 4,0Z" style="opacity: 1; stroke-width: 1px; fill: rgb(253, 231, 37); fill-opacity: 1; stroke: rgb(136, 136, 136); stroke-opacity: 1;"/><path class="point" transform="translate(221.74,176.14)" d="M4,0A4,4 0 1,1 0,-4A4,4 0 0,1 4,0Z" style="opacity: 1; stroke-width: 1px; fill: rgb(253, 231, 37); fill-opacity: 1; stroke: rgb(136, 136, 136); stroke-opacity: 1;"/><path class="point" transform="translate(234.63,169.29)" d="M4,0A4,4 0 1,1 0,-4A4,4 0 0,1 4,0Z" style="opacity: 1; stroke-width: 1px; fill: rgb(253, 231, 37); fill-opacity: 1; stroke: rgb(136, 136, 136); stroke-opacity: 1;"/><path class="point" transform="translate(244.49,164.19)" d="M4,0A4,4 0 1,1 0,-4A4,4 0 0,1 4,0Z" style="opacity: 1; stroke-width: 1px; fill: rgb(253, 231, 37); fill-opacity: 1; stroke: rgb(136, 136, 136); stroke-opacity: 1;"/><path class="point" transform="translate(220.05,188.88)" d="M4,0A4,4 0 1,1 0,-4A4,4 0 0,1 4,0Z" style="opacity: 1; stroke-width: 1px; fill: rgb(253, 231, 37); fill-opacity: 1; stroke: rgb(136, 136, 136); stroke-opacity: 1;"/><path class="point" transform="translate(214.44,201.54)" d="M4,0A4,4 0 1,1 0,-4A4,4 0 0,1 4,0Z" style="opacity: 1; stroke-width: 1px; fill: rgb(253, 231, 37); fill-opacity: 1; stroke: rgb(136, 136, 136); stroke-opacity: 1;"/></g><g class="text"/></g></g></g><g class="overplot"/><path class="xlines-above crisp" d="M0,0" style="fill: none;"/><path class="ylines-above crisp" d="M0,0" style="fill: none;"/><g class="overlines-above"/><g class="xaxislayer-above"/><g class="yaxislayer-above"/><g class="overaxes-above"/></g></g><g class="polarlayer"/><g class="smithlayer"/><g class="ternarylayer"/><g class="geolayer"/><g class="funnelarealayer"/><g class="pielayer"/><g class="iciclelayer"/><g class="treemaplayer"/><g class="sunburstlayer"/><g class="glimages"/><defs id="topdefs-b5c774"><g class="clips"/></defs><g class="layer-above"><g class="imagelayer"/><g class="shapelayer"/></g><g class="infolayer"><g class="cb59cd219b-6514-4b19-babd-b9c9cd2fc41d colorbar" transform="translate(30,40)"><rect class="cbbg" x="312.5" y="0" width="51.640625" height="331" style="fill: rgb(0, 0, 0); fill-opacity: 0; stroke: rgb(68, 68, 68); stroke-opacity: 1; stroke-width: 0;"/><g class="cbfills" transform="translate(0,10)"><rect class="cbfill gradient_filled" style="fill: url('#gb5c774-cb59cd219b-6514-4b19-babd-b9c9cd2fc41d');" x="323" y="0" width="15" height="310"/></g><g class="cblines" transform="translate(0,10)"/><g class="cbaxis crisp" transform="translate(0,-40)"><g class="ycb59cd219b-6514-4b19-babd-b9c9cd2fc41dtick"><text text-anchor="start" x="341.4" y="4.199999999999999" transform="translate(0,327.7)" style="font-family: 'Open Sans', verdana, arial, sans-serif; font-size: 12px; fill: rgb(36, 36, 36); fill-opacity: 1; white-space: pre; opacity: 1;">2</text></g><g class="ycb59cd219b-6514-4b19-babd-b9c9cd2fc41dtick"><text text-anchor="start" x="341.4" y="4.199999999999999" style="font-family: 'Open Sans', verdana, arial, sans-serif; font-size: 12px; fill: rgb(36, 36, 36); fill-opacity: 1; white-space: pre; opacity: 1;" transform="translate(0,258.28)">4</text></g><g class="ycb59cd219b-6514-4b19-babd-b9c9cd2fc41dtick"><text text-anchor="start" x="341.4" y="4.199999999999999" style="font-family: 'Open Sans', verdana, arial, sans-serif; font-size: 12px; fill: rgb(36, 36, 36); fill-opacity: 1; white-space: pre; opacity: 1;" transform="translate(0,188.85)">6</text></g><g class="ycb59cd219b-6514-4b19-babd-b9c9cd2fc41dtick"><text text-anchor="start" x="341.4" y="4.199999999999999" style="font-family: 'Open Sans', verdana, arial, sans-serif; font-size: 12px; fill: rgb(36, 36, 36); fill-opacity: 1; white-space: pre; opacity: 1;" transform="translate(0,119.43)">8</text></g><g class="ycb59cd219b-6514-4b19-babd-b9c9cd2fc41dtick"><text text-anchor="start" x="341.4" y="4.199999999999999" style="font-family: 'Open Sans', verdana, arial, sans-serif; font-size: 12px; fill: rgb(36, 36, 36); fill-opacity: 1; white-space: pre; opacity: 1;" transform="translate(0,49.99999999999999)">10</text></g></g><g class="cbtitleunshift" transform="translate(-30,-40)"><g class="cbtitle"/></g><rect class="cboutline" x="323" y="10" width="15" height="310" style="stroke: rgb(68, 68, 68); stroke-opacity: 1; fill: none; stroke-width: 1;"/></g><g class="g-gtitle"/><g class="g-xtitle"/><g class="g-ytitle"/></g></svg>