<svg class="main-svg" xmlns="http://www.w3.org/2000/svg" xmlns:xlink="http://www.w3.org/1999/xlink" width="400" height="400" style="" viewBox="0 0 400 400"><rect x="0" y="0" width="400" height="400" style="fill: rgb(255, 255, 255); fill-opacity: 1;"/><defs id="defs-85e98a"><g class="clips"><clipPath id="clip85e98axyplot" class="plotclip"><rect width="303" height="330"/></clipPath><clipPath class="axesclip" id="clip85e98ax"><rect x="30" y="0" width="303" height="400"/></clipPath><clipPath class="axesclip" id="clip85e98ay"><rect x="0" y="40" width="400" height="330"/></clipPath><clipPath class="axesclip" id="clip85e98axy"><rect x="30" y="40" width="303" height="330"/></clipPath></g><g class="gradients"><linearGradient x1="0" x2="0" y1="1" y2="0" id="g85e98a-cbcaeae584-c5b5-4e89-ab46-85473bb202d7"><stop offset="0%" stop-color="rgb(68, 1, 84)" stop-opacity="1"/><stop offset="11.111111%" stop-color="rgb(72, 40, 120)" stop-opacity="1"/><stop offset="22.222222%" stop-color="rgb(62, 73, 137)" stop-opacity="1"/><stop offset="33.333333%" stop-color="rgb(49, 104, 142)" stop-opacity="1"/><stop offset="44.444444%" stop-color="rgb(38, 130, 142)" stop-opacity="1"/><stop offset="55.555556%" stop-color="rgb(31, 158, 137)" stop-opacity="1"/><stop offset="66.666667%" stop-color="rgb(53, 183, 121)" stop-opacity="1"/><stop offset="77.777778%" stop-color="rgb(110, 206, 88)" stop-opacity="1"/><stop offset="88.888889%" stop-color="rgb(181, 222, 43)" stop-opacity="1"/><stop offset="100%" stop-color="rgb(253, 231, 37)" stop-opacity="1"/></linearGradient></g><g class="patterns"/></defs><g class="bglayer"/><g class="layer-below"><g class="imagelayer"/><g class="shapelayer"/></g><g class="cartesianlayer"><g class="subplot xy"><g class="layer-subplot"><g class="shapelayer"/><g class="imagelayer"/></g><g class="minor-gridlayer"><g class="x"/><g class="y"/></g><g class="gridlayer"><g class="x"/><g class="y"/></g><g class="zerolinelayer"/><path class="xlines-below"/><path class="ylines-below"/><g class="overlines-below"/><g class="xaxislayer-below"/><g class="yaxislayer-below"/><g class="overaxes-below"/><g class="plot" transform="translate(30,40)" clip-path="url(#clip85e98axyplot)"><g class="scatterlayer mlayer"><g class="trace scatter trace7e0570a7-b935-4b8a-a525-0eaefda894e0" style="stroke-miterlimit: 2; opacity: 1;"><g class="fills"/><g class="errorbars"/><g class="lines"><path class="js-line" d="M211.91,286.03L247.73,272.06" style="vector-effect: none; fill: none; stroke: rgb(136, 136, 136); stroke-opacity: 1; stroke-width: 1px; opacity: 1;"/><path class="js-line" d="M211.91,286.03L184.04,310.5" style="vector-effect: none; fill: none; stroke: rgb(136, 136, 136); stroke-opacity: 1; stroke-width: 1px; opacity: 1;"/><path class="js-line" d="M211.91,286.03L215.54,246.64" style="vector-effect: none; fill: none; stroke: rgb(136, 136, 136); stroke-opacity: 1; stroke-width: 1px; opacity: 1;"/><path class="js-line" d="M271.13,193.87L283.95,156.6" style="vector-effect: none; fill: none; stroke: rgb(136, 136, 136); stroke-opacity: 1; stroke-width: 1px; opacity: 1;"/><path class="js-line" d="M271.13,193.87L270.9,236.13" style="vector-effect: none; fill: none; stroke: rgb(136, 136, 136); stroke-opacity: 1; stroke-width: 1px; opacity: 1;"/><path class="js-line" d="M271.13,193.87L238.68,211.5" style="vector-effect: none; fill: none; stroke: rgb(136, 136, 136); stroke-opacity: 1; stroke-width: 1px; opacity: 1;"/><path class="js-line" d="M270.9,236.13L247.73,272.06" style="vector-effect: none; fill: none; stroke: rgb(136, 136, 136); stroke-opacity: 1; stroke-width: 1px; opacity: 1;"/><path class="js-line" d="M43.69,252.87L69.84,283.33" style="vector-effect: none; fill: none; stroke: rgb(136, 136, 136); stroke-opacity: 1; stroke-width: 1px; opacity: 1;"/><path class="js-line" d="M43.69,252.87L25.92,213.52" style="vector-effect: none; fill: none; stroke: rgb(136, 136, 136); stroke-opacity: 1; stroke-width: 1px; opacity: 1;"/><path class="js-line" d="M238.68,211.5L215.54,246.64" style="vector-effect: none; fill: none; stroke: rgb(136, 136, 136); stroke-opacity: 1; stroke-width: 1px; opacity: 1;"/><path class="js-line" d="M83.32,165.95L119.61,181.86" style="vector-effect: none; fill: none; stroke: rgb(136, 136, 136); stroke-opacity: 1; stroke-width: 1px; opacity: 1;"/><path class="js-line" d="M83.32,165.95L79.5,125.55" style="vector-effect: none; fill: none; stroke: rgb(136, 136, 136); stroke-opacity: 1; stroke-width: 1px; opacity: 1;"/><path class="js-line" d="M119.61,181.86L168.63,176.7" style="vector-effect: none; fill: none; stroke: rgb(136, 136, 136); stroke-opacity: 1; stroke-width: 1px; opacity: 1;"/><path class="js-line" d="M141.31,156.62L137.39,110.98" style="vector-effect: none; fill: none; stroke: rgb(136, 136, 136); stroke-opacity: 1; stroke-width: 1px; opacity: 1;"/><path class="js-line" d="M141.31,156.62L136.14,211.87" style="vector-effect: none; fill: none; stroke: rgb(136, 136, 136); stroke-opacity: 1; stroke-width: 1px; opacity: 1;"/><path class="js-line" d="M189.09,25.67L221.52,41.66" style="vector-effect: none; fill: none; stroke: rgb(136, 136, 136); stroke-opacity: 1; stroke-width: 1px; opacity: 1;"/><path class="js-line" d="M189.09,25.67L152.76,19.5" style="vector-effect: none; fill: none; stroke: rgb(136, 136, 136); stroke-opacity: 1; stroke-width: 1px; opacity: 1;"/><path class="js-line" d="M221.52,41.66L242.09,71.46" style="vector-effect: none; fill: none; stroke: rgb(136, 136, 136); stroke-opacity: 1; stroke-width: 1px; opacity: 1;"/><path class="js-line" d="M152.76,19.5L114.16,23.99" style="vector-effect: none; fill: none; stroke: rgb(136, 136, 136); stroke-opacity: 1; stroke-width: 1px; opacity: 1;"/><path class="js-line" d="M204.31,142.66L231.22,107.91" style="vector-effect: none; fill: none; stroke: rgb(136, 136, 136); stroke-opacity: 1; stroke-width: 1px; opacity: 1;"/><path class="js-line" d="M204.31,142.66L168.63,176.7" style="vector-effect: none; fill: none; stroke: rgb(136, 136, 136); stroke-opacity: 1; stroke-width: 1px; opacity: 1;"/><path class="js-line" d="M231.22,107.91L242.09,71.46" style="vector-effect: none; fill: none; stroke: rgb(136, 136, 136); stroke-opacity: 1; stroke-width: 1px; opacity: 1;"/><path class="js-line" d="M23.53,119.89L18.15,168.01" style="vector-effect: none; fill: none; stroke: rgb(136, 136, 136); stroke-opacity: 1; stroke-width: 1px; opacity: 1;"/><path class="js-line" d="M23.53,119.89L43.7,75.56" style="vector-effect: none; fill: none; stroke: rgb(136, 136, 136); stroke-opacity: 1; stroke-width: 1px; opacity: 1;"/><path class="js-line" d="M137.39,110.98L105.3,97.25" style="vector-effect: none; fill: none; stroke: rgb(136, 136, 136); stroke-opacity: 1; stroke-width: 1px; opacity: 1;"/><path class="js-line" d="M105.3,97.25L79.5,125.55" style="vector-effect: none; fill: none; stroke: rgb(136, 136, 136); stroke-opacity: 1; stroke-width: 1px; opacity: 1;"/><path class="js-line" d="M75.88,42.25L114.16,23.99" style="vector-effect: none; fill: none; stroke: rgb(136, 136, 136); stroke-opacity: 1; stroke-width: 1px; opacity: 1;"/><path class="js-line" d="M75.88,42.25L43.7,75.56" style="vector-effect: none; fill: none; stroke: rgb(136, 136, 136); stroke-opacity: 1; stroke-width: 1px; opacity: 1;"/><path class="js-line" d="M124.4,260.05L136.14,211.87" style="vector-effect: none; fill: none; stroke: rgb(136, 136, 136); stroke-opacity: 1; stroke-width: 1px; opacity: 1;"/><path class="js-line" d="M124.4,260.05L103.36,291.96" style="vector-effect: none; fill: none; stroke: rgb(136, 136, 136); stroke-opacity: 1; stroke-width: 1px; opacity: 1;"/><path class="js-line" d="M103.36,291.96L69.84,283.33" style="vector-effect: none; fill: none; stroke: rgb(136, 136, 136); stroke-opacity: 1; stroke-width: 1px; opacity: 1;"/><path class="js-line" d="M18.15,168.01L25.92,213.52" style="vector-effect: none; fill: none; stroke: rgb(136, 136, 136); stroke-opacity: 1; stroke-width: 1px; opacity: 1;"/></g><g class="points"/><g class="text"/></g><g class="trace scatter tracecaeae584-c5b5-4e89-ab46-85473bb202d7" style="stroke-miterlimit: 2; opacity: 1;"><g class="fills"/><g class="errorbars"/><g class="lines"/><g class="points"><path class="point" transform="translate(211.91,286.03)" d="M4.62,0A4.62,4.62 0 1,1 0,-4.62A4.62,4.62 0 0,1 4.62,0Z" style="opacity: 1; stroke-width: 1px; fill: rgb(253, 231, 37); fill-opacity: 1; stroke: rgb(136, 136, 136); stroke-opacity: 1;"/><path class="point" transform="translate(271.13,193.87)" d="M5,0A5,5 0 1,1 0,-5A5,5 0 0,1 5,0Z" style="opacity: 1; stroke-width: 1px; fill: rgb(253, 231, 37); fill-opacity: 1; stroke: rgb(136, 136, 136); stroke-opacity: 1;"/><path class="point" transform="translate(283.95,156.6)" d="M4,0A4,4 0 1,1 0,-4A4,4 0 0,1 4,0Z" style="opacity: 1; stroke-width: 1px; fill: rgb(253, 231, 37); fill-opacity: 1; stroke: rgb(136, 136, 136); stroke-opacity: 1;"/><path class="point" transform="translate(270.9,236.13)" d="M4,0A4,4 0 1,1 0,-4A4,4 0 0,1 4,0Z" style="opacity: 1; stroke-width: 1px; fill: rgb(253, 231, 37); fill-opacity: 1; stroke: rgb(136, 136, 136); stroke-opacity: 1;"/><path class="point" transform="translate(43.69,252.87)" d="M4,0A4,4 0 1,1 0,-4A4,4 0 0,1 4,0Z" style="opacity: 1; stroke-width: 1px; fill: rgb(68, 1, 84); fill-opacity: 1; stroke: rgb(136, 136, 136); stroke-opacity: 1;"/><path class="point" transform="translate(247.73,272.06)" d="M4,0A4,4 0 1,1 0,-4A4,4 0 0,1 4,0Z" style="opacity: 1; stroke-width: 1px; fill: rgb(253, 231, 37); fill-opacity: 1; stroke: rgb(136, 136, 136); stroke-opacity: 1;"/><path class="point" transform="translate(184.04,310.5)" d="M4,0A4,4 0 1,1 0,-4A4,4 0 0,1 4,0Z" style="opacity: 1; stroke-width: 1px; fill: rgb(253, 231, 37); fill-opacity: 1; stroke: rgb(136, 136, 136); stroke-opacity: 1;"/><path class="point" transform="translate(238.68,211.5)" d="M4,0A4,4 0 1,1 0,-4A4,4 0 0,1 4,0Z" style="opacity: 1; stroke-width: 1px; fill: rgb(253, 231, 37); fill-opacity: 1; stroke: rgb(136, 136, 136); stroke-opacity: 1;"/><path class="point" transform="translate(83.32,165.95)" d="M4,0A4,4 0 1,1 0,-4A4,4 0 0,1 4,0Z" style="opacity: 1; stroke-width: 1px; fill: rgb(68, 1, 84); fill-opacity: 1; stroke: rgb(136, 136, 136); stroke-opacity: 1;"/><path class="point" transform="translate(119.61,181.86)" d="M4,0A4,4 0 1,1 0,-4A4,4 0 0,1 4,0Z" style="opacity: 1; stroke-width: 1px; fill: rgb(68, 1, 84); fill-opacity: 1; stroke: rgb(136, 136, 136); stroke-opacity: 1;"/><path class="point" transform="translate(141.31,156.62)" d="M4,0A4,4 0 1,1 0,-4A4,4 0 0,1 4,0Z" style="opacity: 1; stroke-width: 1px; fill: rgb(68, 1, 84); fill-opacity: 1; stroke: rgb(136, 136, 136); stroke-opacity: 1;"/><path class="point" transform="translate(215.54,246.64)" d="M4,0A4,4 0 1,1 0,-4A4,4 0 0,1 4,0Z" style="opacity: 1; stroke-width: 1px; fill: rgb(253, 231, 37); fill-opacity: 1; stroke: rgb(136, 136, 136); stroke-opacity: 1;"/><path class="point" transform="translate(189.09,25.67)" d="M4,0A4,4 0 1,1 0,-4A4,4 0 0,1 4,0Z" style="opacity: 1; stroke-width: 1px; fill: rgb(68, 1, 84); fill-opacity: 1; stroke: rgb(136, 136, 136); stroke-opacity: 1;"/><path class="point" transform="translate(221.52,41.66)" d="M4,0A4,4 0 1,1 0,-4A4,4 0 0,1 4,0Z" style="opacity: 1; stroke-width: 1px; fill: rgb(68, 1, 84); fill-opacity: 1; stroke: rgb(136, 136, 136); stroke-opacity: 1;"/><path class="point" transform="translate(152.76,19.5)" d="M4,0A4,4 0 1,1 0,-4A4,4 0 0,1 4,0Z" style="opacity: 1; stroke-width: 1px; fill: rgb(68, 1, 84); fill-opacity: 1; stroke: rgb(136, 136, 136); stroke-opacity: 1;"/><path class="point" transform="translate(204.31,142.66)" d="M4,0A4,4 0 1,1 0,-4A4,4 0 0,1 4,0Z" style="opacity: 1; stroke-width: 1px; fill: rgb(68, 1, 84); fill-opacity: 1; stroke: rgb(136, 136, 136); stroke-opacity: 1;"/><path class="point" transform="translate(231.22,107.91)" d="M4,0A4,4 0 1,1 0,-4A4,4 0 0,1 4,0Z" style="opacity: 1; stroke-width: 1px; fill: rgb(68, 1, 84); fill-opacity: 1; stroke: rgb(136, 136, 136); stroke-opacity: 1;"/><path class="point" transform="translate(23.53,119.89)" d="M4,0A4,4 0 1,1 0,-4A4,4 0 0,1 4,0Z" style="opacity: 1; stroke-width: 1px; fill: rgb(68, 1, 84); fill-opacity: 1; stroke: rgb(136, 136, 136); stroke-opacity: 1;"/><path class="point" transform="translate(242.09,71.46)" d="M4,0A4,4 0 1,1 0,-4A4,4 0 0,1 4,0Z" style="opacity: 1; stroke-width: 1px; fill: rgb(68, 1, 84); fill-opacity: 1; stroke: rgb(136, 136, 136); stroke-opacity: 1;"/><path class="point" transform="translate(137.39,110.98)" d="M4,0A4,4 0 1,1 0,-4A4,4 0 0,1 4,0Z" style="opacity: 1; stroke-width: 1px; fill: rgb(68, 1, 84); fill-opacity: 1; stroke: rgb(136, 136, 136); stroke-opacity: 1;"/><path class="point" transform="translate(105.3,97.25)" d="M4,0A4,4 0 1,1 0,-4A4,4 0 0,1 4,0Z" style="opacity: 1; stroke-width: 1px; fill: rgb(68, 1, 84); fill-opacity: 1; stroke: rgb(136, 136, 136); stroke-opacity: 1;"/><path class="point" transform="translate(75.88,42.25)" d="M4,0A4,4 0 1,1 0,-4A4,4 0 0,1 4,0Z" style="opacity: 1; stroke-width: 1px; fill: rgb(68, 1, 84); fill-opacity: 1; stroke: rgb(136, 136, 136); stroke-opacity: 1;"/><path class="point" transform="translate(124.4,260.05)" d="M4,0A4,4 0 1,1 0,-4A4,4 0 0,1 4,0Z" style="opacity: 1; stroke-width: 1px; fill: rgb(68, 1, 84); fill-opacity: 1; stroke: rgb(136, 136, 136); stroke-opacity: 1;"/><path class="point" transform="translate(136.14,211.87)" d="M4,0A4,4 0 1,1 0,-4A4,4 0 0,1 4,0Z" style="opacity: 1; stroke-width: 1px; fill: rgb(68, 1, 84); fill-opacity: 1; stroke: rgb(136, 136, 136); stroke-opacity: 1;"/><path class="point" transform="translate(114.16,23.99)" d="M4,0A4,4 0 1,1 0,-4A4,4 0 0,1 4,0Z" style="opacity: 1; stroke-width: 1px; fill: rgb(68, 1, 84); fill-opacity: 1; stroke: rgb(136, 136, 136); stroke-opacity: 1;"/><path class="point" transform="translate(103.36,291.96)" d="M4,0A4,4 0 1,1 0,-4A4,4 0 0,1 4,0Z" style="opacity: 1; stroke-width: 1px; fill: rgb(68, 1, 84); fill-opacity: 1; stroke: rgb(136, 136, 136); stroke-opacity: 1;"/><path class="point" transform="translate(18.15,168.01)" d="M4,0A4,4 0 1,1 0,-4A4,4 0 0,1 4,0Z" style="opacity: 1; stroke-width: 1px; fill: rgb(68, 1, 84); fill-opacity: 1; stroke: rgb(136, 136, 136); stroke-opacity: 1;"/><path class="point" transform="translate(43.7,75.56)" d="M4,0A4,4 0 1,1 0,-4A4,4 0 0,1 4,0Z" style="opacity: 1; stroke-width: 1px; fill: rgb(68, 1, 84); fill-opacity: 1; stroke: rgb(136, 136, 136); stroke-opacity: 1;"/><path class="point" transform="translate(69.84,283.33)" d="M4,0A4,4 0 1,1 0,-4A4,4 0 0,1 4,0Z" style="opacity: 1; stroke-width: 1px; fill: rgb(68, 1, 84); fill-opacity: 1; stroke: rgb(136, 136, 136); stroke-opacity: 1;"/><path class="point" transform="translate(79.5,125.55)" d="M4,0A4,4 0 1,1 0,-4A4,4 0 0,1 4,0Z" style="opacity: 1; stroke-width: 1px; fill: rgb(68, 1, 84); fill-opacity: 1; stroke: rgb(136, 136, 136); stroke-opacity: 1;"/><path class="point" transform="translate(168.63,176.7)" d="M4,0A4,4 0 1,1 0,-4A4,4 0 0,1 4,0Z" style="opacity: 1; stroke-width: 1px; fill: rgb(68, 1, 84); fill-opacity: 1; stroke: rgb(136, 136, 136); stroke-opacity: 1;"/><path class="point" transform="translate(25.92,213.52)" d="M4,0A4,4 0 1,1 0,-4A4,4 0 0,1 4,0Z" style="opacity: 1; stroke-width: 1px; fill: rgb(68, 1, 84); fill-opacity: 1; stroke: rgb(136, 136, 136); stroke-opacity: 1;"/></g><g class="text"/></g></g></g><g class="overplot"/><path class="xlines-above crisp" d="M0,0" style="fill: none;"/><path class="ylines-above crisp" d="M0,0" style="fill: none;"/><g class="overlines-above"/><g class="xaxislayer-above"/><g class="yaxislayer-above"/><g class="overaxes-above"/></g></g><g class="polarlayer"/><g class="smithlayer"/><g class="ternarylayer"/><g class="geolayer"/><g class="funnelarealayer"/><g class="pielayer"/><g class="iciclelayer"/><g class="treemaplayer"/><g class="sunburstlayer"/><g class="glimages"/><defs id="topdefs-85e98a"><g class="clips"/></defs><g class="layer-above"><g class="imagelayer"/><g class="shapelayer"/></g><g class="infolayer"><g class="cbcaeae584-c5b5-4e89-ab46-85473bb202d7 colorbar" transform="translate(30,40)"><rect class="cbbg" x="308.5" y="0" width="56.015625" height="331" style="fill: rgb(0, 0, 0); fill-opacity: 0; stroke: rgb(68, 68, 68); stroke-opacity: 1; stroke-width: 0;"/><g class="cbfills" transform="translate(0,10)"><rect class="cbfill gradient_filled" style="fill: url('#g85e98a-cbcaeae584-c5b5-4e89-ab46-85473bb202d7');" x="319" y="0" width="15" height="310"/></g><g class="cblines" transform="translate(0,10)"/><g class="cbaxis crisp" transform="translate(0,-40)"><g class="ycbcaeae584-c5b5-4e89-ab46-85473bb202d7tick"><text text-anchor="start" x="337.4" y="4.199999999999999" transform="translate(0,360)" style="font-family: 'Open Sans', verdana, arial, sans-serif; font-size: 12px; fill: rgb(36, 36, 36); fill-opacity: 1; white-space: pre; opacity: 1;">0</text></g><g class="ycbcaeae584-c5b5-4e89-ab46-85473bb202d7tick"><text text-anchor="start" x="337.4" y="4.199999999999999" style="font-family: 'Open Sans', verdana, arial, sans-serif; font-size: 12px; fill: rgb(36, 36, 36); fill-opacity: 1; white-space: pre; opacity: 1;" transform="translate(0,298)">0.2</text></g><g class="ycbcaeae584-c5b5-4e89-ab46-85473bb202d7tick"><text text-anchor="start" x="337.4" y="4.199999999999999" style="font-family: 'Open Sans', verdana, arial, sans-serif; font-size: 12px; fill: rgb(36, 36, 36); fill-opacity: 1; white-space: pre; opacity: 1;" transform="translate(0,236)">0.4</text></g><g class="ycbcaeae584-c5b5-4e89-ab46-85473bb202d7tick"><text text-anchor="start" x="337.4" y="4.199999999999999" style="font-family: 'Open Sans', verdana, arial, sans-serif; font-size: 12px; fill: rgb(36, 36, 36); fill-opacity: 1; white-space: pre; opacity: 1;" transform="translate(0,174)">0.6</text></g><g class="ycbcaeae584-c5b5-4e89-ab46-85473bb202d7tick"><text text-anchor="start" x="337.4" y="4.199999999999999" style="font-family: 'Open Sans', verdana, arial, sans-serif; font-size: 12px; fill: rgb(36, 36, 36); fill-opacity: 1; white-space: pre; opacity: 1;" transform="translate(0,112)">0.8</text></g><g class="ycbcaeae584-c5b5-4e89-ab46-85473bb202d7tick"><text text-anchor="start" x="337.4" y="4.199999999999999" style="font-family: 'Open Sans', verdana, arial, sans-serif; font-size: 12px; fill: rgb(36, 36, 36); fill-opacity: 1; white-space: pre; opacity: 1;" transform="translate(0,49.99999999999999)">1</text></g></g><g class="cbtitleunshift" transform="translate(-30,-40)"><g class="cbtitle"/></g><rect class="cboutline" x="319" y="10" width="15" height="310" style="stroke: rgb(68, 68, 68); stroke-opacity: 1; fill: none; stroke-width: 1;"/></g><g class="g-gtitle"/><g class="g-xtitle"/><g class="g-ytitle"/></g></svg>