<svg class="main-svg" xmlns="http://www.w3.org/2000/svg" xmlns:xlink="http://www.w3.org/1999/xlink" width="400" height="400" style="" viewBox="0 0 400 400"><rect x="0" y="0" width="400" height="400" style="fill: rgb(255, 255, 255); fill-opacity: 1;"/><defs id="defs-8dc36a"><g class="clips"><clipPath id="clip8dc36axyplot" class="plotclip"><rect width="303" height="330"/></clipPath><clipPath class="axesclip" id="clip8dc36ax"><rect x="30" y="0" width="303" height="400"/></clipPath><clipPath class="axesclip" id="clip8dc36ay"><rect x="0" y="40" width="400" height="330"/></clipPath><clipPath class="axesclip" id="clip8dc36axy"><rect x="30" y="40" width="303" height="330"/></clipPath></g><g class="gradients"><linearGradient x1="0" x2="0" y1="1" y2="0" id="g8dc36a-cb6311a862-b5ca-451e-bc3c-3a73f9492412"><stop offset="0%" stop-color="rgb(0, 0, 131)" stop-opacity="1"/><stop offset="20%" stop-color="rgb(0, 60, 170)" stop-opacity="1"/><stop offset="40%" stop-color="rgb(5, 255, 255)" stop-opacity="1"/><stop offset="60%" stop-color="rgb(255, 255, 0)" stop-opacity="1"/><stop offset="80%" stop-color="rgb(250, 0, 0)" stop-opacity="1"/><stop offset="100%" stop-color="rgb(128, 0, 0)" stop-opacity="1"/></linearGradient></g><g class="patterns"/></defs><g class="bglayer"/><g class="layer-below"><g class="imagelayer"/><g class="shapelayer"/></g><g class="cartesianlayer"><g class="subplot xy"><g class="layer-subplot"><g class="shapelayer"/><g class="imagelayer"/></g><g class="minor-gridlayer"><g class="x"/><g class="y"/></g><g class="gridlayer"><g class="x"/><g class="y"/></g><g class="zerolinelayer"/><path class="xlines-below"/><path class="ylines-below"/><g class="overlines-below"/><g class="xaxislayer-below"/><g class="yaxislayer-below"/><g class="overaxes-below"/><g class="plot" transform="translate(30,40)" clip-path="url(#clip8dc36axyplot)"><g class="scatterlayer mlayer"><g class="trace scatter trace92121d50-1b6a-4222-ac82-779a26b19d4d" style="stroke-miterlimit: 2; opacity: 1;"><g class="fills"/><g class="errorbars"/><g class="lines"><path class="js-line" d="M267.26,234.87L247.18,274.91" style="vector-effect: none; fill: none; stroke: rgb(136, 136, 136); stroke-opacity: 1; stroke-width: 1px; opacity: 1;"/><path class="js-line" d="M267.26,234.87L279.47,190.79" style="vector-effect: none; fill: none; stroke: rgb(136, 136, 136); stroke-opacity: 1; stroke-width: 1px; opacity: 1;"/><path class="js-line" d="M247.18,274.91L223.34,308.67" style="vector-effect: none; fill: none; stroke: rgb(136, 136, 136); stroke-opacity: 1; stroke-width: 1px; opacity: 1;"/><path class="js-line" d="M283.04,145.26L279.47,190.79" style="vector-effect: none; fill: none; stroke: rgb(136, 136, 136); stroke-opacity: 1; stroke-width: 1px; opacity: 1;"/><path class="js-line" d="M283.04,145.26L280.14,102.64" style="vector-effect: none; fill: none; stroke: rgb(136, 136, 136); stroke-opacity: 1; stroke-width: 1px; opacity: 1;"/><path class="js-line" d="M111.11,33.18L80.81,65.26" style="vector-effect: none; fill: none; stroke: rgb(136, 136, 136); stroke-opacity: 1; stroke-width: 1px; opacity: 1;"/><path class="js-line" d="M111.11,33.18L150.82,19.5" style="vector-effect: none; fill: none; stroke: rgb(136, 136, 136); stroke-opacity: 1; stroke-width: 1px; opacity: 1;"/><path class="js-line" d="M80.81,65.26L49.84,101.92" style="vector-effect: none; fill: none; stroke: rgb(136, 136, 136); stroke-opacity: 1; stroke-width: 1px; opacity: 1;"/><path class="js-line" d="M48.53,277.35L25.82,237.33" style="vector-effect: none; fill: none; stroke: rgb(136, 136, 136); stroke-opacity: 1; stroke-width: 1px; opacity: 1;"/><path class="js-line" d="M48.53,277.35L82.75,306.5" style="vector-effect: none; fill: none; stroke: rgb(136, 136, 136); stroke-opacity: 1; stroke-width: 1px; opacity: 1;"/><path class="js-line" d="M30.18,147.21L18.15,191.85" style="vector-effect: none; fill: none; stroke: rgb(136, 136, 136); stroke-opacity: 1; stroke-width: 1px; opacity: 1;"/><path class="js-line" d="M30.18,147.21L49.84,101.92" style="vector-effect: none; fill: none; stroke: rgb(136, 136, 136); stroke-opacity: 1; stroke-width: 1px; opacity: 1;"/><path class="js-line" d="M157.37,218.24L178.27,168.2" style="vector-effect: none; fill: none; stroke: rgb(136, 136, 136); stroke-opacity: 1; stroke-width: 1px; opacity: 1;"/><path class="js-line" d="M157.37,218.24L150.27,271.96" style="vector-effect: none; fill: none; stroke: rgb(136, 136, 136); stroke-opacity: 1; stroke-width: 1px; opacity: 1;"/><path class="js-line" d="M157.37,218.24L119.79,201.22" style="vector-effect: none; fill: none; stroke: rgb(136, 136, 136); stroke-opacity: 1; stroke-width: 1px; opacity: 1;"/><path class="js-line" d="M178.27,168.2L192.79,119.27" style="vector-effect: none; fill: none; stroke: rgb(136, 136, 136); stroke-opacity: 1; stroke-width: 1px; opacity: 1;"/><path class="js-line" d="M192.79,119.27L205.04,72.3" style="vector-effect: none; fill: none; stroke: rgb(136, 136, 136); stroke-opacity: 1; stroke-width: 1px; opacity: 1;"/><path class="js-line" d="M150.27,271.96L124.92,310.5" style="vector-effect: none; fill: none; stroke: rgb(136, 136, 136); stroke-opacity: 1; stroke-width: 1px; opacity: 1;"/><path class="js-line" d="M124.92,310.5L82.75,306.5" style="vector-effect: none; fill: none; stroke: rgb(136, 136, 136); stroke-opacity: 1; stroke-width: 1px; opacity: 1;"/><path class="js-line" d="M190.94,30.67L150.82,19.5" style="vector-effect: none; fill: none; stroke: rgb(136, 136, 136); stroke-opacity: 1; stroke-width: 1px; opacity: 1;"/><path class="js-line" d="M190.94,30.67L205.04,72.3" style="vector-effect: none; fill: none; stroke: rgb(136, 136, 136); stroke-opacity: 1; stroke-width: 1px; opacity: 1;"/><path class="js-line" d="M25.82,237.33L18.15,191.85" style="vector-effect: none; fill: none; stroke: rgb(136, 136, 136); stroke-opacity: 1; stroke-width: 1px; opacity: 1;"/><path class="js-line" d="M19.36,78.65L49.84,101.92" style="vector-effect: none; fill: none; stroke: rgb(136, 136, 136); stroke-opacity: 1; stroke-width: 1px; opacity: 1;"/></g><g class="points"/><g class="text"/></g><g class="trace scatter trace6311a862-b5ca-451e-bc3c-3a73f9492412" style="stroke-miterlimit: 2; opacity: 1;"><g class="fills"/><g class="errorbars"/><g class="lines"/><g class="points"><path class="point" transform="translate(267.26,234.87)" d="M5,0A5,5 0 1,1 0,-5A5,5 0 0,1 5,0Z" style="opacity: 1; stroke-width: 1px; fill: rgb(128, 0, 0); fill-opacity: 1; stroke: rgb(136, 136, 136); stroke-opacity: 1;"/><path class="point" transform="translate(247.18,274.91)" d="M4,0A4,4 0 1,1 0,-4A4,4 0 0,1 4,0Z" style="opacity: 1; stroke-width: 1px; fill: rgb(128, 0, 0); fill-opacity: 1; stroke: rgb(136, 136, 136); stroke-opacity: 1;"/><path class="point" transform="translate(283.04,145.26)" d="M4.3,0A4.3,4.3 0 1,1 0,-4.3A4.3,4.3 0 0,1 4.3,0Z" style="opacity: 1; stroke-width: 1px; fill: rgb(128, 0, 0); fill-opacity: 1; stroke: rgb(136, 136, 136); stroke-opacity: 1;"/><path class="point" transform="translate(279.47,190.79)" d="M4.74,0A4.74,4.74 0 1,1 0,-4.74A4.74,4.74 0 0,1 4.74,0Z" style="opacity: 1; stroke-width: 1px; fill: rgb(128, 0, 0); fill-opacity: 1; stroke: rgb(136, 136, 136); stroke-opacity: 1;"/><path class="point" transform="translate(280.14,102.64)" d="M4,0A4,4 0 1,1 0,-4A4,4 0 0,1 4,0Z" style="opacity: 1; stroke-width: 1px; fill: rgb(128, 0, 0); fill-opacity: 1; stroke: rgb(136, 136, 136); stroke-opacity: 1;"/><path class="point" transform="translate(111.11,33.18)" d="M4,0A4,4 0 1,1 0,-4A4,4 0 0,1 4,0Z" style="opacity: 1; stroke-width: 1px; fill: rgb(0, 0, 131); fill-opacity: 1; stroke: rgb(136, 136, 136); stroke-opacity: 1;"/><path class="point" transform="translate(80.81,65.26)" d="M4,0A4,4 0 1,1 0,-4A4,4 0 0,1 4,0Z" style="opacity: 1; stroke-width: 1px; fill: rgb(0, 0, 131); fill-opacity: 1; stroke: rgb(136, 136, 136); stroke-opacity: 1;"/><path class="point" transform="translate(48.53,277.35)" d="M4,0A4,4 0 1,1 0,-4A4,4 0 0,1 4,0Z" style="opacity: 1; stroke-width: 1px; fill: rgb(0, 0, 131); fill-opacity: 1; stroke: rgb(136, 136, 136); stroke-opacity: 1;"/><path class="point" transform="translate(30.18,147.21)" d="M4,0A4,4 0 1,1 0,-4A4,4 0 0,1 4,0Z" style="opacity: 1; stroke-width: 1px; fill: rgb(0, 0, 131); fill-opacity: 1; stroke: rgb(136, 136, 136); stroke-opacity: 1;"/><path class="point" transform="translate(157.37,218.24)" d="M4,0A4,4 0 1,1 0,-4A4,4 0 0,1 4,0Z" style="opacity: 1; stroke-width: 1px; fill: rgb(0, 0, 131); fill-opacity: 1; stroke: rgb(136, 136, 136); stroke-opacity: 1;"/><path class="point" transform="translate(178.27,168.2)" d="M4,0A4,4 0 1,1 0,-4A4,4 0 0,1 4,0Z" style="opacity: 1; stroke-width: 1px; fill: rgb(0, 0, 131); fill-opacity: 1; stroke: rgb(136, 136, 136); stroke-opacity: 1;"/><path class="point" transform="translate(192.79,119.27)" d="M4,0A4,4 0 1,1 0,-4A4,4 0 0,1 4,0Z" style="opacity: 1; stroke-width: 1px; fill: rgb(0, 0, 131); fill-opacity: 1; stroke: rgb(136, 136, 136); stroke-opacity: 1;"/><path class="point" transform="translate(150.27,271.96)" d="M4,0A4,4 0 1,1 0,-4A4,4 0 0,1 4,0Z" style="opacity: 1; stroke-width: 1px; fill: rgb(0, 0, 131); fill-opacity: 1; stroke: rgb(136, 136, 136); stroke-opacity: 1;"/><path class="point" transform="translate(124.92,310.5)" d="M4,0A4,4 0 1,1 0,-4A4,4 0 0,1 4,0Z" style="opacity: 1; stroke-width: 1px; fill: rgb(0, 0, 131); fill-opacity: 1; stroke: rgb(136, 136, 136); stroke-opacity: 1;"/><path class="point" transform="translate(190.94,30.67)" d="M4,0A4,4 0 1,1 0,-4A4,4 0 0,1 4,0Z" style="opacity: 1; stroke-width: 1px; fill: rgb(0, 0, 131); fill-opacity: 1; stroke: rgb(136, 136, 136); stroke-opacity: 1;"/><path class="point" transform="translate(150.82,19.5)" d="M4,0A4,4 0 1,1 0,-4A4,4 0 0,1 4,0Z" style="opacity: 1; stroke-width: 1px; fill: rgb(0, 0, 131); fill-opacity: 1; stroke: rgb(136, 136, 136); stroke-opacity: 1;"/><path class="point" transform="translate(25.82,237.33)" d="M4,0A4,4 0 1,1 0,-4A4,4 0 0,1 4,0Z" style="opacity: 1; stroke-width: 1px; fill: rgb(0, 0, 131); fill-opacity: 1; stroke: rgb(136, 136, 136); stroke-opacity: 1;"/><path class="point" transform="translate(18.15,191.85)" d="M4,0A4,4 0 1,1 0,-4A4,4 0 0,1 4,0Z" style="opacity: 1; stroke-width: 1px; fill: rgb(0, 0, 131); fill-opacity: 1; stroke: rgb(136, 136, 136); stroke-opacity: 1;"/><path class="point" transform="translate(205.04,72.3)" d="M4,0A4,4 0 1,1 0,-4A4,4 0 0,1 4,0Z" style="opacity: 1; stroke-width: 1px; fill: rgb(0, 0, 131); fill-opacity: 1; stroke: rgb(136, 136, 136); stroke-opacity: 1;"/><path class="point" transform="translate(82.75,306.5)" d="M4,0A4,4 0 1,1 0,-4A4,4 0 0,1 4,0Z" style="opacity: 1; stroke-width: 1px; fill: rgb(0, 0, 131); fill-opacity: 1; stroke: rgb(136, 136, 136); stroke-opacity: 1;"/><path class="point" transform="translate(19.36,78.65)" d="M4,0A4,4 0 1,1 0,-4A4,4 0 0,1 4,0Z" style="opacity: 1; stroke-width: 1px; fill: rgb(0, 0, 131); fill-opacity: 1; stroke: rgb(136, 136, 136); stroke-opacity: 1;"/><path class="point" transform="translate(49.84,101.92)" d="M4,0A4,4 0 1,1 0,-4A4,4 0 0,1 4,0Z" style="opacity: 1; stroke-width: 1px; fill: rgb(0, 0, 131); fill-opacity: 1; stroke: rgb(136, 136, 136); stroke-opacity: 1;"/><path class="point" transform="translate(223.34,308.67)" d="M4,0A4,4 0 1,1 0,-4A4,4 0 0,1 4,0Z" style="opacity: 1; stroke-width: 1px; fill: rgb(128, 0, 0); fill-opacity: 1; stroke: rgb(136, 136, 136); stroke-opacity: 1;"/><path class="point" transform="translate(119.79,201.22)" d="M4,0A4,4 0 1,1 0,-4A4,4 0 0,1 4,0Z" style="opacity: 1; stroke-width: 1px; fill: rgb(0, 0, 131); fill-opacity: 1; stroke: rgb(136, 136, 136); stroke-opacity: 1;"/></g><g class="text"/></g></g></g><g class="overplot"/><path class="xlines-above crisp" d="M0,0" style="fill: none;"/><path class="ylines-above crisp" d="M0,0" style="fill: none;"/><g class="overlines-above"/><g class="xaxislayer-above"/><g class="yaxislayer-above"/><g class="overaxes-above"/></g></g><g class="polarlayer"/><g class="smithlayer"/><g class="ternarylayer"/><g class="geolayer"/><g class="funnelarealayer"/><g class="pielayer"/><g class="iciclelayer"/><g class="treemaplayer"/><g class="sunburstlayer"/><g class="glimages"/><defs id="topdefs-8dc36a"><g class="clips"/></defs><g class="layer-above"><g class="imagelayer"/><g class="shapelayer"/></g><g class="infolayer"><g class="cb6311a862-b5ca-451e-bc3c-3a73f9492412 colorbar" transform="translate(30,40)"><rect class="cbbg" x="308.5" y="0" width="56.015625" height="331" style="fill: rgb(0, 0, 0); fill-opacity: 0; stroke: rgb(68, 68, 68); stroke-opacity: 1; stroke-width: 0;"/><g class="cbfills" transform="translate(0,10)"><rect class="cbfill gradient_filled" style="fill: url('#g8dc36a-cb6311a862-b5ca-451e-bc3c-3a73f9492412');" x="319" y="0" width="15" height="310"/></g><g class="cblines" transform="translate(0,10)"/><g class="cbaxis crisp" transform="translate(0,-40)"><g class="ycb6311a862-b5ca-451e-bc3c-3a73f9492412tick"><text text-anchor="start" x="337.4" y="4.199999999999999" transform="translate(0,360)" style="font-family: 'Open Sans', verdana, arial, sans-serif; font-size: 12px; fill: rgb(36, 36, 36); fill-opacity: 1; white-space: pre; opacity: 1;">0</text></g><g class="ycb6311a862-b5ca-451e-bc3c-3a73f9492412tick"><text text-anchor="start" x="337.4" y="4.199999999999999" style="font-family: 'Open Sans', verdana, arial, sans-serif; font-size: 12px; fill: rgb(36, 36, 36); fill-opacity: 1; white-space: pre; opacity: 1;" transform="translate(0,298)">0.2</text></g><g class="ycb6311a862-b5ca-451e-bc3c-3a73f9492412tick"><text text-anchor="start" x="337.4" y="4.199999999999999" style="font-family: 'Open Sans', verdana, arial, sans-serif; font-size: 12px; fill: rgb(36, 36, 36); fill-opacity: 1; white-space: pre; opacity: 1;" transform="translate(0,236)">0.4</text></g><g class="ycb6311a862-b5ca-451e-bc3c-3a73f9492412tick"><text text-anchor="start" x="337.4" y="4.199999999999999" style="font-family: 'Open Sans', verdana, arial, sans-serif; font-size: 12px; fill: rgb(36, 36, 36); fill-opacity: 1; white-space: pre; opacity: 1;" transform="translate(0,174)">0.6</text></g><g class="ycb6311a862-b5ca-451e-bc3c-3a73f9492412tick"><text text-anchor="start" x="337.4" y="4.199999999999999" style="font-family: 'Open Sans', verdana, arial, sans-serif; font-size: 12px; fill: rgb(36, 36, 36); fill-opacity: 1; white-space: pre; opacity: 1;" transform="translate(0,112)">0.8</text></g><g class="ycb6311a862-b5ca-451e-bc3c-3a73f9492412tick"><text text-anchor="start" x="337.4" y="4.199999999999999" style="font-family: 'Open Sans', verdana, arial, sans-serif; font-size: 12px; fill: rgb(36, 36, 36); fill-opacity: 1; white-space: pre; opacity: 1;" transform="translate(0,49.99999999999999)">1</text></g></g><g class="cbtitleunshift" transform="translate(-30,-40)"><g class="cbtitle"/></g><rect class="cboutline" x="319" y="10" width="15" height="310" style="stroke: rgb(68, 68, 68); stroke-opacity: 1; fill: none; stroke-width: 1;"/></g><g class="g-gtitle"/><g class="g-xtitle"/><g class="g-ytitle"/></g></svg>